%FSLAX35Y35*%
%MOIN*%
%IN2=CopperbottomL2(X.Bot)*%
%ADD10C,0.00591*%
%ADD11C,0.00409*%
%ADD12C,0.00512*%
%ADD13C,0.00768*%
%ADD14C,0.00787*%
%ADD15C,0.01181*%
%ADD16C,0.01378*%
%ADD17C,0.01575*%
%ADD18C,0.01969*%
%ADD19C,0.02362*%
%ADD20C,0.02756*%
%ADD21C,0.03937*%
%AMR_22*21,1,0.01969,0.01969,0,0,0.000*%
%ADD22R_22*%
%AMR_23*21,1,0.01969,0.03346,0,0,270.000*%
%ADD23R_23*%
%AMR_24*21,1,0.03200,0.03800,0,0,0.000*%
%ADD24R_24*%
%AMR_25*21,1,0.03200,0.03800,0,0,180.000*%
%ADD25R_25*%
%AMR_26*21,1,0.03200,0.03800,0,0,270.000*%
%ADD26R_26*%
%AMR_27*21,1,0.05000,0.05000,0,0,0.000*%
%ADD27R_27*%
%AMR_28*21,1,0.05000,0.05000,0,0,270.000*%
%ADD28R_28*%
%AMR_29*21,1,0.05571,0.10827,0,0,180.000*%
%ADD29R_29*%
%AMR_30*21,1,0.07087,0.09843,0,0,270.000*%
%ADD30R_30*%
%AMR_31*21,1,0.19685,0.19685,0,0,0.000*%
%ADD31R_31*%
%AMOCT_32*4,1,8,0.027559,0.013780,0.013780,0.027559,-0.013780,0.027559,-0.027559,0.013780,-0.027559,-0.013780,-0.013780,-0.027559,0.013780,-0.027559,0.027559,-0.013780,0.027559,0.013780,180.000*%
%ADD32OCT_32*%
%AMOCT_33*4,1,8,0.031496,0.015748,0.015748,0.031496,-0.015748,0.031496,-0.031496,0.015748,-0.031496,-0.015748,-0.015748,-0.031496,0.015748,-0.031496,0.031496,-0.015748,0.031496,0.015748,90.000*%
%ADD33OCT_33*%
%AMOCT_34*4,1,8,0.031496,0.015748,0.015748,0.031496,-0.015748,0.031496,-0.031496,0.015748,-0.031496,-0.015748,-0.015748,-0.031496,0.015748,-0.031496,0.031496,-0.015748,0.031496,0.015748,180.000*%
%ADD34OCT_34*%
%AMO_35*20,1,0.01575,0.02165,0.00000,-0.02165,0.00000,0*1,1,0.01575,0.02165,0.00000*1,1,0.01575,-0.02165,0.00000*%
%ADD35O_35*%
%AMO_36*20,1,0.09055,0.01083,0.00000,-0.01083,0.00000,0*1,1,0.09055,0.01083,0.00000*1,1,0.09055,-0.01083,0.00000*%
%ADD36O_36*%
%AMO_37*20,1,0.09055,0.00000,0.01083,0.00000,-0.01083,0*1,1,0.09055,0.00000,0.01083*1,1,0.09055,0.00000,-0.01083*%
%ADD37O_37*%
%AMRR_38*21,1,0.06299,0.05039,0,0,90.000*21,1,0.05039,0.06299,0,0,90.000*1,1,0.01260,-0.02520,0.02520*1,1,0.01260,0.02520,-0.02520*1,1,0.01260,0.02520,0.02520*1,1,0.01260,-0.02520,-0.02520*%
%ADD38RR_38*%
%AMRR_39*21,1,0.06299,0.05039,0,0,180.000*21,1,0.05039,0.06299,0,0,180.000*1,1,0.01260,-0.02520,-0.02520*1,1,0.01260,0.02520,0.02520*1,1,0.01260,-0.02520,0.02520*1,1,0.01260,0.02520,-0.02520*%
%ADD39RR_39*%
%AMRR_40*21,1,0.07874,0.13386,0,0,180.000*21,1,0.07480,0.13780,0,0,180.000*1,1,0.00394,-0.03740,-0.06693*1,1,0.00394,0.03740,0.06693*1,1,0.00394,-0.03740,0.06693*1,1,0.00394,0.03740,-0.06693*%
%ADD40RR_40*%
G54D15*
X51839Y39958D02*
X47500Y35618D01*
X47500Y21433D01*
X51433Y17500D01*
X44901Y40836D02*
X43020Y38955D01*
X44901Y40836D02*
X45043Y40836D01*
X28510Y36922D02*
X28510Y34109D01*
X28525Y34094D01*
X67500Y17500D02*
X63977Y13977D01*
X61177Y13977D01*
X57500Y10300D01*
X67500Y17500D02*
X67500Y23011D01*
X67500Y17500D01*
X67500Y23011D02*
X74803Y30314D01*
X78346Y30314D02*
X74803Y30314D01*
X78346Y30314D02*
X80708Y27952D01*
X83464Y27952D01*
X85433Y29921D01*
X85433Y35039D01*
X87401Y37007D01*
X87401Y42451D01*
X85098Y42451D01*
X52200Y30000D02*
X52200Y34718D01*
X57439Y39958D01*
X57439Y49639D01*
X57800Y50000D01*
X16239Y11534D02*
X26234Y11534D01*
X32200Y17500D01*
X15883Y6888D02*
X31588Y6888D01*
X32200Y7500D01*
X88200Y49299D02*
X87500Y50000D01*
X88200Y20700D02*
X85000Y17500D01*
X45000Y17500D02*
X37800Y17500D01*
X88200Y20700D02*
X88200Y34263D01*
X89763Y35826D02*
X88200Y34263D01*
X89763Y35826D02*
X89763Y47736D01*
X87500Y50000D01*
X87500Y55000D02*
X90173Y52326D01*
X96706Y52326D01*
X99616Y49416D01*
X99616Y34865D01*
X96986Y32235D01*
X91138Y32235D01*
X91064Y32309D02*
X91138Y32235D01*
X43090Y8483D02*
X42107Y7500D01*
X37800Y7500D01*
X57800Y30000D02*
X57800Y34571D01*
X60629Y37401D01*
X60629Y56432D01*
X61561Y57363D01*
X64916Y4700D02*
X57500Y4700D01*
X64916Y4700D02*
X67716Y7500D01*
X57451Y4651D02*
X50958Y4651D01*
X57451Y4651D02*
X57500Y4700D01*
G54D18*
X7027Y57283D02*
X7027Y47283D01*
X7027Y37283D01*
X7027Y57283D02*
X12244Y62500D01*
X20000Y62500D01*
X42500Y62500D02*
X45000Y60000D01*
X20800Y57500D02*
X20800Y61700D01*
X20000Y62500D01*
X42500Y62500D01*
X22500Y47283D02*
X7027Y47283D01*
X22500Y47283D02*
X25000Y44783D01*
X7027Y37283D02*
X12820Y31490D01*
X12820Y5391D02*
X12820Y31490D01*
X12820Y5391D02*
X15525Y2687D01*
X43375Y2687D01*
X49440Y8751D01*
X49440Y15507D01*
X51433Y17500D01*
X57500Y17500D01*
X7027Y27283D02*
X7027Y17283D01*
X7027Y7283D01*
X29200Y57500D02*
X36556Y57500D01*
X40000Y54056D01*
X40000Y47283D01*
X43809Y51093D01*
X47084Y51093D01*
X52200Y50000D02*
X51106Y51093D01*
X47084Y51093D01*
X40000Y47283D02*
X32516Y39800D01*
X32516Y26601D01*
X25132Y19216D01*
X21501Y19216D01*
X94527Y17283D02*
X94527Y7283D01*
X82500Y7283D01*
X82283Y7500D01*
X40000Y32716D02*
X40000Y35935D01*
X43020Y38955D01*
X25000Y30216D02*
X25000Y33412D01*
X28510Y36922D01*
X67716Y7500D02*
X72486Y12270D01*
X72486Y23098D01*
X76635Y27247D01*
G54D19*
X85098Y42451D03*
G54D20*
X67500Y42500D03*
X67500Y47500D03*
X70000Y45000D03*
X70000Y50000D03*
X70000Y40000D03*
X67500Y52500D03*
X13801Y52729D03*
X14720Y38788D03*
X44059Y23467D03*
X52332Y23237D03*
X82820Y23927D03*
X85041Y60007D03*
X61514Y61932D03*
X32262Y44839D03*
X17019Y29289D03*
X70255Y54862D03*
X64744Y59192D03*
X82066Y56043D03*
X82066Y36751D03*
X82066Y31633D03*
X67106Y37539D03*
X63169Y35177D03*
X64350Y40295D03*
X64350Y45019D03*
X64744Y49744D03*
X72224Y47381D03*
X72224Y42657D03*
X72224Y36751D03*
X65531Y28484D03*
X71830Y32421D03*
X63169Y31240D03*
X64744Y54862D03*
X72618Y52500D03*
X71830Y58405D03*
X47084Y51093D03*
X21501Y19216D03*
X24400Y19108D03*
X43020Y38955D03*
X45043Y40836D03*
X28510Y36922D03*
X28525Y34094D03*
X16239Y11534D03*
X15883Y6888D03*
X87500Y50000D03*
X85000Y17500D03*
X45000Y17500D03*
X87500Y55000D03*
X91064Y32309D03*
X43090Y8483D03*
X61561Y57363D03*
X76635Y27247D03*
X50958Y4651D03*
G54D24*
X51839Y39958D03*
X57439Y39958D03*
X52200Y30000D03*
X57800Y30000D03*
G54D25*
X57800Y50000D03*
X52200Y50000D03*
X37800Y17500D03*
X32200Y17500D03*
X37800Y7500D03*
X32200Y7500D03*
G54D26*
X57500Y10300D03*
X57500Y4700D03*
G54D27*
X29200Y57500D03*
X20800Y57500D03*
G54D32*
X77500Y17500D03*
X57500Y17500D03*
X67500Y17500D03*
G54D33*
X7027Y17283D03*
X7027Y27283D03*
X7027Y37283D03*
X7027Y47283D03*
X7027Y57283D03*
X94527Y17283D03*
X94527Y27283D03*
X94527Y37283D03*
X94527Y47283D03*
X94527Y57283D03*
G54D34*
X45000Y60000D03*
G54D36*
X67716Y7500D03*
X82283Y7500D03*
G54D37*
X40000Y32716D03*
X40000Y47283D03*
X25000Y30216D03*
X25000Y44783D03*
G54D38*
X7027Y7283D03*
X94527Y7283D03*
G54D39*
X55000Y60000D03*
G54D10*
X2303Y2322D02*
X49368Y2322D01*
X52634Y2322D02*
X54084Y2322D01*
X60915Y2322D02*
X63608Y2322D01*
X71824Y2322D02*
X78175Y2322D01*
X86391Y2322D02*
X100196Y2322D01*
X49368Y2322D02*
X49187Y2440D01*
X52847Y2519D02*
X54084Y2519D01*
X60915Y2559D02*
X63199Y2559D01*
X49187Y2440D02*
X49050Y2519D01*
X54084Y2322D02*
X54084Y2519D01*
X52634Y2322D02*
X52847Y2519D01*
X3169Y2598D02*
X10885Y2598D01*
X90669Y2598D02*
X98385Y2598D01*
X49050Y2519D02*
X49002Y2559D01*
X63608Y2322D02*
X63199Y2559D01*
X60915Y2322D02*
X60915Y2559D01*
X49002Y2559D02*
X48967Y2598D01*
X86391Y2322D02*
X86868Y2598D01*
X78175Y2322D02*
X77698Y2598D01*
X71824Y2322D02*
X72301Y2598D01*
X98385Y2598D02*
X98779Y2637D01*
X90669Y2598D02*
X90275Y2637D01*
X86868Y2598D02*
X86931Y2637D01*
X77698Y2598D02*
X77635Y2637D01*
X72301Y2598D02*
X72364Y2637D01*
X10885Y2598D02*
X11279Y2637D01*
X3169Y2598D02*
X2775Y2637D01*
X98779Y2637D02*
X98959Y2677D01*
X90275Y2637D02*
X90095Y2677D01*
X11279Y2637D02*
X11459Y2677D01*
X2775Y2637D02*
X2595Y2677D01*
X2303Y2755D02*
X2480Y2755D01*
X11574Y2755D02*
X48853Y2755D01*
X72499Y2755D02*
X77500Y2755D01*
X87066Y2755D02*
X89980Y2755D01*
X99074Y2755D02*
X100196Y2755D01*
X98959Y2677D02*
X99027Y2716D01*
X90095Y2677D02*
X90027Y2716D01*
X11459Y2677D02*
X11527Y2716D01*
X2595Y2677D02*
X2527Y2716D01*
X86931Y2637D02*
X87022Y2716D01*
X77635Y2637D02*
X77544Y2716D01*
X72364Y2637D02*
X72455Y2716D01*
X48967Y2598D02*
X48884Y2716D01*
X99027Y2716D02*
X99074Y2755D01*
X90027Y2716D02*
X89980Y2755D01*
X11527Y2716D02*
X11574Y2755D01*
X2527Y2716D02*
X2480Y2755D01*
X99074Y2755D02*
X99110Y2795D01*
X89980Y2755D02*
X89944Y2795D01*
X11574Y2755D02*
X11610Y2795D01*
X2480Y2755D02*
X2444Y2795D01*
X99110Y2795D02*
X99137Y2834D01*
X89944Y2795D02*
X89917Y2834D01*
X11610Y2795D02*
X11637Y2834D01*
X2444Y2795D02*
X2417Y2834D01*
X99137Y2834D02*
X99158Y2874D01*
X89917Y2834D02*
X89896Y2874D01*
X11637Y2834D02*
X11658Y2874D01*
X2417Y2834D02*
X2396Y2874D01*
X99158Y2874D02*
X99173Y2913D01*
X89896Y2874D02*
X89881Y2913D01*
X11658Y2874D02*
X11673Y2913D01*
X2396Y2874D02*
X2381Y2913D01*
X99173Y2913D02*
X99184Y2952D01*
X89881Y2913D02*
X89870Y2952D01*
X11673Y2913D02*
X11684Y2952D01*
X2381Y2913D02*
X2370Y2952D01*
X99184Y2952D02*
X99190Y2992D01*
X89870Y2952D02*
X89864Y2992D01*
X11684Y2952D02*
X11690Y2992D01*
X2370Y2952D02*
X2364Y2992D01*
X99190Y2992D02*
X99192Y3070D01*
X89864Y2992D02*
X89862Y3070D01*
X11690Y2992D02*
X11692Y3070D01*
X2364Y2992D02*
X2362Y3070D01*
X2303Y3307D02*
X2362Y3307D01*
X11692Y3307D02*
X48433Y3307D01*
X73111Y3307D02*
X76888Y3307D01*
X87678Y3307D02*
X89862Y3307D01*
X99192Y3307D02*
X100196Y3307D01*
X48884Y2716D02*
X48458Y3267D01*
X48458Y3267D02*
X48412Y3346D01*
X48412Y3346D02*
X48370Y3464D01*
X87022Y2716D02*
X87850Y3464D01*
X77544Y2716D02*
X76716Y3464D01*
X72455Y2716D02*
X73283Y3464D01*
X87850Y3464D02*
X87886Y3503D01*
X76716Y3464D02*
X76680Y3503D01*
X73283Y3464D02*
X73319Y3503D01*
X2303Y3858D02*
X2362Y3858D01*
X11692Y3858D02*
X48235Y3858D01*
X73576Y3858D02*
X76423Y3858D01*
X88143Y3858D02*
X89862Y3858D01*
X99192Y3858D02*
X100196Y3858D01*
X29891Y4055D02*
X34508Y4055D01*
X35491Y4055D02*
X40108Y4055D01*
X34902Y4094D02*
X35097Y4094D01*
X15747Y4015D02*
X15843Y4055D01*
X15747Y4015D02*
X15651Y4055D01*
X40108Y4055D02*
X40502Y4094D01*
X35491Y4055D02*
X35097Y4094D01*
X34508Y4055D02*
X34902Y4094D01*
X29891Y4055D02*
X29497Y4094D01*
X16118Y4055D02*
X16512Y4094D01*
X15651Y4055D02*
X15470Y4094D01*
X40502Y4094D02*
X40682Y4133D01*
X29497Y4094D02*
X29317Y4133D01*
X16512Y4094D02*
X16692Y4133D01*
X40682Y4133D02*
X40750Y4173D01*
X29317Y4133D02*
X29249Y4173D01*
X16692Y4133D02*
X16760Y4173D01*
X48370Y3464D02*
X48126Y4173D01*
X48126Y4173D02*
X48120Y4212D01*
X40750Y4173D02*
X40797Y4212D01*
X29249Y4173D02*
X29202Y4212D01*
X16760Y4173D02*
X16835Y4212D01*
X40797Y4212D02*
X40833Y4251D01*
X29202Y4212D02*
X29166Y4251D01*
X15470Y4094D02*
X14849Y4251D01*
X40833Y4251D02*
X40860Y4291D01*
X29166Y4251D02*
X29139Y4291D01*
X14849Y4251D02*
X14713Y4291D01*
X48120Y4212D02*
X48118Y4291D01*
X40860Y4291D02*
X40881Y4330D01*
X29139Y4291D02*
X29118Y4330D01*
X14713Y4291D02*
X14646Y4330D01*
X2303Y4409D02*
X2362Y4409D01*
X11692Y4409D02*
X14525Y4409D01*
X17284Y4409D02*
X29092Y4409D01*
X40907Y4409D02*
X48118Y4409D01*
X73976Y4409D02*
X76023Y4409D01*
X88543Y4409D02*
X89862Y4409D01*
X99192Y4409D02*
X100196Y4409D01*
X40881Y4330D02*
X40896Y4370D01*
X29118Y4330D02*
X29103Y4370D01*
X40896Y4370D02*
X40907Y4409D01*
X29103Y4370D02*
X29092Y4409D01*
X40907Y4409D02*
X40913Y4448D01*
X29092Y4409D02*
X29086Y4448D01*
X16835Y4212D02*
X17373Y4448D01*
X17373Y4448D02*
X17451Y4488D01*
X87886Y3503D02*
X88599Y4488D01*
X76680Y3503D02*
X75967Y4488D01*
X73319Y3503D02*
X74032Y4488D01*
X17451Y4488D02*
X17519Y4527D01*
X40913Y4448D02*
X40915Y4527D01*
X29086Y4448D02*
X29084Y4527D01*
X17519Y4527D02*
X17566Y4566D01*
X88599Y4488D02*
X88638Y4566D01*
X75967Y4488D02*
X75928Y4566D01*
X74032Y4488D02*
X74071Y4566D01*
X17780Y4763D02*
X29084Y4763D01*
X88725Y4763D02*
X89862Y4763D01*
X14646Y4330D02*
X14043Y4724D01*
X14043Y4724D02*
X13975Y4763D01*
X88638Y4566D02*
X88725Y4763D01*
X17566Y4566D02*
X17780Y4763D01*
X29084Y4527D02*
X29084Y4763D01*
X89862Y3070D02*
X89862Y4763D01*
X13975Y4763D02*
X13928Y4803D01*
X13928Y4803D02*
X13892Y4842D01*
X2303Y4960D02*
X2362Y4960D01*
X11692Y4960D02*
X13804Y4960D01*
X40915Y4960D02*
X48118Y4960D01*
X74246Y4960D02*
X75753Y4960D01*
X99192Y4960D02*
X100196Y4960D01*
X13892Y4842D02*
X13835Y4921D01*
X48118Y4291D02*
X48120Y5118D01*
X48120Y5118D02*
X48126Y5157D01*
X48126Y5157D02*
X48150Y5236D01*
X41309Y5393D02*
X41812Y5393D01*
X13835Y4921D02*
X13467Y5393D01*
X40915Y4527D02*
X40915Y5393D01*
X41812Y5393D02*
X42206Y5433D01*
X13467Y5393D02*
X13426Y5433D01*
X2303Y5511D02*
X2362Y5511D01*
X11692Y5511D02*
X13363Y5511D01*
X42602Y5511D02*
X48245Y5511D01*
X74491Y5511D02*
X75508Y5511D01*
X99192Y5511D02*
X100196Y5511D01*
X13426Y5433D02*
X13391Y5472D01*
X13391Y5472D02*
X13363Y5511D01*
X42206Y5433D02*
X42602Y5511D01*
X42602Y5511D02*
X42782Y5551D01*
X13363Y5511D02*
X13343Y5551D01*
X75928Y4566D02*
X75488Y5551D01*
X74071Y4566D02*
X74511Y5551D01*
X75488Y5551D02*
X75467Y5590D01*
X74511Y5551D02*
X74532Y5590D01*
X42782Y5551D02*
X42949Y5590D01*
X13343Y5551D02*
X13327Y5590D01*
X75467Y5590D02*
X75452Y5629D01*
X74532Y5590D02*
X74547Y5629D01*
X42949Y5590D02*
X43016Y5629D01*
X75452Y5629D02*
X75441Y5669D01*
X74547Y5629D02*
X74558Y5669D01*
X43016Y5629D02*
X43293Y5669D01*
X43334Y5669D02*
X43728Y5708D01*
X13327Y5590D02*
X13293Y5708D01*
X43728Y5708D02*
X43908Y5748D01*
X75441Y5669D02*
X75418Y5787D01*
X74558Y5669D02*
X74581Y5787D01*
X48150Y5236D02*
X48391Y5944D01*
X48391Y5944D02*
X48402Y5984D01*
X2303Y6062D02*
X2362Y6062D01*
X11692Y6062D02*
X13172Y6062D01*
X44647Y6062D02*
X48438Y6062D01*
X74639Y6062D02*
X75360Y6062D01*
X99192Y6062D02*
X100196Y6062D01*
X48402Y5984D02*
X48417Y6023D01*
X43908Y5748D02*
X44537Y6023D01*
X48417Y6023D02*
X48438Y6062D01*
X44537Y6023D02*
X44647Y6062D01*
X48438Y6062D02*
X48465Y6102D01*
X44647Y6062D02*
X44714Y6102D01*
X44714Y6102D02*
X44762Y6141D01*
X44762Y6141D02*
X44797Y6181D01*
X48465Y6102D02*
X48569Y6220D01*
X44797Y6181D02*
X44880Y6259D01*
X13293Y5708D02*
X13051Y6417D01*
X13051Y6417D02*
X13045Y6456D01*
X13045Y6456D02*
X13043Y6535D01*
X2303Y6614D02*
X2362Y6614D01*
X11692Y6614D02*
X13043Y6614D01*
X45265Y6614D02*
X48875Y6614D01*
X74756Y6614D02*
X75243Y6614D01*
X99192Y6614D02*
X100196Y6614D01*
X44880Y6259D02*
X45265Y6614D01*
X45265Y6614D02*
X45362Y6692D01*
X52902Y6771D02*
X54084Y6771D01*
X45362Y6692D02*
X45398Y6732D01*
X48569Y6220D02*
X48967Y6732D01*
X48967Y6732D02*
X49002Y6771D01*
X45398Y6732D02*
X45425Y6771D01*
X49002Y6771D02*
X49050Y6811D01*
X45425Y6771D02*
X45446Y6811D01*
X45446Y6811D02*
X45462Y6850D01*
X75418Y5787D02*
X75195Y6850D01*
X74581Y5787D02*
X74804Y6850D01*
X75195Y6850D02*
X75188Y6929D01*
X74804Y6850D02*
X74811Y6929D01*
X52902Y6771D02*
X52645Y7007D01*
X52645Y7007D02*
X52598Y7047D01*
X49050Y6811D02*
X49412Y7047D01*
X52598Y7047D02*
X52530Y7086D01*
X2303Y7165D02*
X2362Y7165D01*
X11692Y7165D02*
X13043Y7165D01*
X45632Y7165D02*
X49593Y7165D01*
X52369Y7165D02*
X54084Y7165D01*
X74811Y7165D02*
X75188Y7165D01*
X99192Y7165D02*
X100196Y7165D01*
X52530Y7086D02*
X52459Y7125D01*
X49412Y7047D02*
X49713Y7244D01*
X49713Y7244D02*
X49781Y7283D01*
X49781Y7283D02*
X49905Y7322D01*
X52459Y7125D02*
X51920Y7362D01*
X13043Y6535D02*
X13045Y7362D01*
X51920Y7362D02*
X51834Y7401D01*
X13045Y7362D02*
X13051Y7401D01*
X51834Y7401D02*
X51766Y7440D01*
X13051Y7401D02*
X13062Y7440D01*
X54084Y6771D02*
X54086Y7440D01*
X54086Y7440D02*
X54092Y7480D01*
X51766Y7440D02*
X51586Y7480D01*
X49905Y7322D02*
X50527Y7480D01*
X54092Y7480D02*
X54092Y7519D01*
X51586Y7480D02*
X51193Y7519D01*
X50527Y7480D02*
X50707Y7519D01*
X45462Y6850D02*
X45824Y7519D01*
X54092Y7519D02*
X54086Y7559D01*
X50974Y7519D02*
X50840Y7559D01*
X50707Y7519D02*
X50840Y7559D01*
X13062Y7440D02*
X13105Y7559D01*
X45824Y7519D02*
X45853Y7598D01*
X45853Y7598D02*
X45864Y7637D01*
X54086Y7559D02*
X54084Y7637D01*
X2303Y7716D02*
X2362Y7716D01*
X11692Y7716D02*
X13159Y7716D01*
X45877Y7716D02*
X54084Y7716D01*
X74811Y7716D02*
X75188Y7716D01*
X99192Y7716D02*
X100196Y7716D01*
X75188Y6929D02*
X75190Y8110D01*
X74811Y6929D02*
X74809Y8110D01*
X75190Y8110D02*
X75201Y8188D01*
X74809Y8110D02*
X74798Y8188D01*
X2303Y8267D02*
X2362Y8267D01*
X11692Y8267D02*
X13357Y8267D01*
X45969Y8267D02*
X54084Y8267D01*
X74781Y8267D02*
X75218Y8267D01*
X99192Y8267D02*
X100196Y8267D01*
X13105Y7559D02*
X13336Y8228D01*
X13336Y8228D02*
X13380Y8307D01*
X13380Y8307D02*
X13438Y8385D01*
X45864Y7637D02*
X46001Y8464D01*
X46001Y8464D02*
X46004Y8503D01*
X46004Y8503D02*
X46001Y8543D01*
X2303Y8818D02*
X2362Y8818D01*
X11692Y8818D02*
X13775Y8818D01*
X45956Y8818D02*
X54084Y8818D01*
X74664Y8818D02*
X75335Y8818D01*
X99192Y8818D02*
X100196Y8818D01*
X13438Y8385D02*
X13865Y8937D01*
X17821Y9015D02*
X29084Y9015D01*
X13865Y8937D02*
X13892Y8976D01*
X13892Y8976D02*
X13928Y9015D01*
X13928Y9015D02*
X13975Y9055D01*
X46001Y8543D02*
X45916Y9055D01*
X13975Y9055D02*
X14043Y9094D01*
X17821Y9015D02*
X17735Y9094D01*
X17735Y9094D02*
X17874Y9173D01*
X14043Y9094D02*
X14166Y9173D01*
X17874Y9173D02*
X17922Y9212D01*
X2303Y9370D02*
X2362Y9370D01*
X11692Y9370D02*
X14398Y9370D01*
X18093Y9370D02*
X29084Y9370D01*
X45864Y9370D02*
X54084Y9370D01*
X74547Y9370D02*
X75452Y9370D01*
X99192Y9370D02*
X100196Y9370D01*
X14166Y9173D02*
X14407Y9330D01*
X18529Y9409D02*
X25846Y9409D01*
X14407Y9330D02*
X14398Y9370D01*
X45916Y9055D02*
X45864Y9370D01*
X75201Y8188D02*
X75452Y9370D01*
X74798Y8188D02*
X74547Y9370D01*
X60915Y9448D02*
X60921Y9448D01*
X75452Y9370D02*
X75467Y9409D01*
X74547Y9370D02*
X74532Y9409D01*
X45864Y9370D02*
X45853Y9409D01*
X14398Y9370D02*
X14330Y9409D01*
X17922Y9212D02*
X18135Y9409D01*
X25846Y9409D02*
X26239Y9448D01*
X14330Y9409D02*
X14283Y9448D01*
X14283Y9448D02*
X14248Y9488D01*
X75467Y9409D02*
X75508Y9488D01*
X74532Y9409D02*
X74491Y9488D01*
X45853Y9409D02*
X45822Y9488D01*
X60921Y9448D02*
X60958Y9527D01*
X26239Y9448D02*
X26635Y9527D01*
X26635Y9527D02*
X26882Y9566D01*
X14248Y9488D02*
X14190Y9566D01*
X26882Y9566D02*
X27062Y9606D01*
X27062Y9606D02*
X27130Y9645D01*
X27130Y9645D02*
X27177Y9685D01*
X88918Y9803D02*
X89862Y9803D01*
X27177Y9685D02*
X27292Y9763D01*
X2303Y9921D02*
X2362Y9921D01*
X11692Y9921D02*
X13914Y9921D01*
X27528Y9921D02*
X29084Y9921D01*
X45588Y9921D02*
X54084Y9921D01*
X60915Y9921D02*
X61133Y9921D01*
X74299Y9921D02*
X75700Y9921D01*
X88866Y9921D02*
X89862Y9921D01*
X99192Y9921D02*
X100196Y9921D01*
X45822Y9488D02*
X45610Y9881D01*
X27292Y9763D02*
X27646Y10000D01*
X14190Y9566D02*
X13822Y10039D01*
X13822Y10039D02*
X13782Y10078D01*
X27646Y10000D02*
X27743Y10078D01*
X13782Y10078D02*
X13746Y10118D01*
X13746Y10118D02*
X13719Y10157D01*
X45610Y9881D02*
X45462Y10157D01*
X45462Y10157D02*
X45446Y10196D01*
X13719Y10157D02*
X13698Y10196D01*
X45446Y10196D02*
X45425Y10236D01*
X13698Y10196D02*
X13683Y10236D01*
X45425Y10236D02*
X45398Y10275D01*
X40915Y10354D02*
X40936Y10354D01*
X45398Y10275D02*
X45362Y10314D01*
X45362Y10314D02*
X45315Y10354D01*
X13683Y10236D02*
X13649Y10354D01*
X74491Y9488D02*
X74106Y10354D01*
X74106Y10354D02*
X74131Y10393D01*
X45315Y10354D02*
X45262Y10393D01*
X2303Y10472D02*
X2362Y10472D01*
X11692Y10472D02*
X13608Y10472D01*
X28137Y10472D02*
X29084Y10472D01*
X40915Y10472D02*
X41028Y10472D01*
X45177Y10472D02*
X54084Y10472D01*
X60915Y10472D02*
X61379Y10472D01*
X74210Y10472D02*
X75946Y10472D01*
X88620Y10472D02*
X89862Y10472D01*
X99192Y10472D02*
X100196Y10472D01*
X74131Y10393D02*
X74210Y10472D01*
X74210Y10472D02*
X74257Y10511D01*
X88918Y9803D02*
X88599Y10511D01*
X60958Y9527D02*
X61400Y10511D01*
X75508Y9488D02*
X75967Y10511D01*
X74257Y10511D02*
X74293Y10551D01*
X40936Y10354D02*
X41090Y10551D01*
X40915Y10354D02*
X40913Y10551D01*
X29084Y9015D02*
X29086Y10551D01*
X74293Y10551D02*
X74320Y10590D01*
X41090Y10551D02*
X41125Y10590D01*
X40913Y10551D02*
X40907Y10590D01*
X29086Y10551D02*
X29092Y10590D01*
X74320Y10590D02*
X74352Y10629D01*
X40907Y10590D02*
X40896Y10629D01*
X29092Y10590D02*
X29103Y10629D01*
X40896Y10629D02*
X40881Y10669D01*
X29103Y10629D02*
X29118Y10669D01*
X41125Y10590D02*
X41223Y10669D01*
X88599Y10511D02*
X88486Y10669D01*
X75967Y10511D02*
X76080Y10669D01*
X61400Y10511D02*
X61513Y10669D01*
X40881Y10669D02*
X40860Y10708D01*
X29118Y10669D02*
X29139Y10708D01*
X74352Y10629D02*
X74425Y10708D01*
X74425Y10708D02*
X74452Y10748D01*
X40860Y10708D02*
X40833Y10748D01*
X29139Y10708D02*
X29166Y10748D01*
X60915Y9448D02*
X60915Y10748D01*
X40833Y10748D02*
X40797Y10787D01*
X29166Y10748D02*
X29202Y10787D01*
X45262Y10393D02*
X44835Y10787D01*
X40797Y10787D02*
X40750Y10826D01*
X29202Y10787D02*
X29249Y10826D01*
X60915Y10748D02*
X60991Y10826D01*
X34902Y10905D02*
X35097Y10905D01*
X40750Y10826D02*
X40682Y10866D01*
X29249Y10826D02*
X29317Y10866D01*
X44835Y10787D02*
X44762Y10866D01*
X29891Y10944D02*
X34508Y10944D01*
X35491Y10944D02*
X40108Y10944D01*
X44762Y10866D02*
X44714Y10905D01*
X40682Y10866D02*
X40502Y10905D01*
X29317Y10866D02*
X29497Y10905D01*
X44714Y10905D02*
X44647Y10944D01*
X40502Y10905D02*
X40108Y10944D01*
X35097Y10905D02*
X35491Y10944D01*
X34902Y10905D02*
X34508Y10944D01*
X29497Y10905D02*
X29891Y10944D01*
X2303Y11023D02*
X2362Y11023D01*
X11692Y11023D02*
X13417Y11023D01*
X28688Y11023D02*
X41765Y11023D01*
X44441Y11023D02*
X54084Y11023D01*
X61188Y11023D02*
X61770Y11023D01*
X74618Y11023D02*
X76337Y11023D01*
X88229Y11023D02*
X89862Y11023D01*
X99192Y11023D02*
X100196Y11023D01*
X44647Y10944D02*
X44531Y10984D01*
X74452Y10748D02*
X74591Y10984D01*
X41223Y10669D02*
X41765Y11023D01*
X41765Y11023D02*
X41818Y11062D01*
X13649Y10354D02*
X13407Y11062D01*
X41818Y11062D02*
X41866Y11102D01*
X13407Y11062D02*
X13401Y11102D01*
X74591Y10984D02*
X74673Y11102D01*
X74673Y11102D02*
X74708Y11141D01*
X41866Y11102D02*
X41933Y11141D01*
X74708Y11141D02*
X74735Y11181D01*
X13401Y11102D02*
X13398Y11181D01*
X74735Y11181D02*
X74756Y11220D01*
X41933Y11141D02*
X42297Y11220D01*
X74756Y11220D02*
X74772Y11259D01*
X44531Y10984D02*
X43903Y11259D01*
X43903Y11259D02*
X43722Y11299D01*
X42297Y11220D02*
X42608Y11299D01*
X43722Y11299D02*
X43329Y11338D01*
X42608Y11299D02*
X42788Y11338D01*
X74772Y11259D02*
X74793Y11338D01*
X74793Y11338D02*
X74814Y11377D01*
X43263Y11338D02*
X43025Y11377D01*
X42788Y11338D02*
X43025Y11377D01*
X74814Y11377D02*
X74845Y11456D01*
X88486Y10669D02*
X87886Y11496D01*
X76080Y10669D02*
X76680Y11496D01*
X61513Y10669D02*
X62113Y11496D01*
X2303Y11574D02*
X2364Y11574D01*
X11690Y11574D02*
X13398Y11574D01*
X29239Y11574D02*
X54084Y11574D01*
X61739Y11574D02*
X62190Y11574D01*
X74869Y11574D02*
X76757Y11574D01*
X87809Y11574D02*
X89864Y11574D01*
X99190Y11574D02*
X100196Y11574D01*
X87886Y11496D02*
X87850Y11535D01*
X76680Y11496D02*
X76716Y11535D01*
X62113Y11496D02*
X62149Y11535D01*
X74845Y11456D02*
X74862Y11535D01*
X89862Y9803D02*
X89864Y11574D01*
X99192Y3070D02*
X99190Y11574D01*
X11692Y3070D02*
X11690Y11574D01*
X2362Y3070D02*
X2364Y11574D01*
X99190Y11574D02*
X99184Y11614D01*
X89864Y11574D02*
X89870Y11614D01*
X11690Y11574D02*
X11684Y11614D01*
X2364Y11574D02*
X2370Y11614D01*
X87850Y11535D02*
X87765Y11614D01*
X76716Y11535D02*
X76801Y11614D01*
X62149Y11535D02*
X62234Y11614D01*
X99184Y11614D02*
X99173Y11653D01*
X89870Y11614D02*
X89881Y11653D01*
X11684Y11614D02*
X11673Y11653D01*
X2370Y11614D02*
X2381Y11653D01*
X99173Y11653D02*
X99158Y11692D01*
X89881Y11653D02*
X89896Y11692D01*
X11673Y11653D02*
X11658Y11692D01*
X2381Y11653D02*
X2396Y11692D01*
X99158Y11692D02*
X99137Y11732D01*
X89896Y11692D02*
X89917Y11732D01*
X11658Y11692D02*
X11637Y11732D01*
X2396Y11692D02*
X2417Y11732D01*
X99137Y11732D02*
X99110Y11771D01*
X89917Y11732D02*
X89944Y11771D01*
X11637Y11732D02*
X11610Y11771D01*
X2417Y11732D02*
X2444Y11771D01*
X74862Y11535D02*
X74906Y11771D01*
X62015Y11850D02*
X62496Y11850D01*
X99110Y11771D02*
X99074Y11811D01*
X89944Y11771D02*
X89980Y11811D01*
X11610Y11771D02*
X11574Y11811D01*
X2444Y11771D02*
X2480Y11811D01*
X99074Y11811D02*
X99027Y11850D01*
X89980Y11811D02*
X90027Y11850D01*
X11574Y11811D02*
X11527Y11850D01*
X2480Y11811D02*
X2527Y11850D01*
X62234Y11614D02*
X62496Y11850D01*
X60991Y10826D02*
X62015Y11850D01*
X99027Y11850D02*
X98959Y11889D01*
X90027Y11850D02*
X90095Y11889D01*
X11527Y11850D02*
X11459Y11889D01*
X2527Y11850D02*
X2595Y11889D01*
X3169Y11968D02*
X4133Y11968D01*
X9921Y11968D02*
X10885Y11968D01*
X90669Y11968D02*
X91633Y11968D01*
X97421Y11968D02*
X98385Y11968D01*
X98959Y11889D02*
X98779Y11929D01*
X90095Y11889D02*
X90275Y11929D01*
X11459Y11889D02*
X11279Y11929D01*
X2595Y11889D02*
X2775Y11929D01*
X98779Y11929D02*
X98385Y11968D01*
X90275Y11929D02*
X90669Y11968D01*
X11279Y11929D02*
X10885Y11968D01*
X2775Y11929D02*
X3169Y11968D01*
X13398Y11181D02*
X13401Y12007D01*
X13401Y12007D02*
X13407Y12047D01*
X74906Y11771D02*
X74976Y12047D01*
X2303Y12125D02*
X4527Y12125D01*
X9527Y12125D02*
X13433Y12125D01*
X29790Y12125D02*
X54084Y12125D01*
X74976Y12125D02*
X77369Y12125D01*
X87197Y12125D02*
X92027Y12125D01*
X97027Y12125D02*
X100196Y12125D01*
X74976Y12047D02*
X74978Y12086D01*
X13407Y12047D02*
X13417Y12086D01*
X74978Y12086D02*
X74973Y12165D01*
X13417Y12086D02*
X13460Y12204D01*
X74973Y12165D02*
X74984Y12244D01*
X74984Y12244D02*
X74986Y12322D01*
X87765Y11614D02*
X86931Y12362D01*
X76801Y11614D02*
X77635Y12362D01*
X86931Y12362D02*
X86868Y12401D01*
X77635Y12362D02*
X77698Y12401D01*
X2303Y12677D02*
X4527Y12677D01*
X9527Y12677D02*
X13622Y12677D01*
X30342Y12677D02*
X54084Y12677D01*
X74986Y12677D02*
X78175Y12677D01*
X86391Y12677D02*
X92027Y12677D01*
X97027Y12677D02*
X100196Y12677D01*
X97027Y11968D02*
X97027Y12834D01*
X92027Y11968D02*
X92027Y12834D01*
X9527Y11968D02*
X9527Y12834D01*
X4527Y11968D02*
X4527Y12834D01*
X86868Y12401D02*
X86050Y12874D01*
X77698Y12401D02*
X78516Y12874D01*
X13460Y12204D02*
X13692Y12874D01*
X13692Y12874D02*
X13736Y12952D01*
X86050Y12874D02*
X85845Y12992D01*
X78516Y12874D02*
X78721Y12992D01*
X85845Y12992D02*
X85731Y13031D01*
X78721Y12992D02*
X78835Y13031D01*
X13736Y12952D02*
X13794Y13031D01*
X54084Y7637D02*
X54086Y13031D01*
X54086Y13031D02*
X54092Y13070D01*
X54092Y13070D02*
X54103Y13110D01*
X75964Y13188D02*
X78926Y13188D01*
X54103Y13110D02*
X54118Y13149D01*
X2303Y13228D02*
X4133Y13228D01*
X9921Y13228D02*
X13947Y13228D01*
X30893Y13228D02*
X54166Y13228D01*
X74986Y13228D02*
X75570Y13228D01*
X79429Y13228D02*
X79441Y13228D01*
X85125Y13228D02*
X91633Y13228D01*
X97421Y13228D02*
X100196Y13228D01*
X54118Y13149D02*
X54139Y13188D01*
X78835Y13031D02*
X79319Y13188D01*
X75964Y13188D02*
X75570Y13228D01*
X54139Y13188D02*
X54166Y13228D01*
X79677Y13307D02*
X79683Y13307D01*
X75570Y13228D02*
X75390Y13267D01*
X54166Y13228D02*
X54202Y13267D01*
X79724Y13346D02*
X79804Y13346D01*
X75390Y13267D02*
X75322Y13307D01*
X54202Y13267D02*
X54249Y13307D01*
X75322Y13307D02*
X75275Y13346D01*
X54249Y13307D02*
X54317Y13346D01*
X85731Y13031D02*
X84762Y13346D01*
X54891Y13425D02*
X57266Y13425D01*
X69787Y13425D02*
X69986Y13425D01*
X84762Y13346D02*
X84582Y13385D01*
X79804Y13346D02*
X79984Y13385D01*
X79724Y13346D02*
X79759Y13385D01*
X75275Y13346D02*
X75240Y13385D01*
X54317Y13346D02*
X54497Y13385D01*
X84582Y13385D02*
X84302Y13425D01*
X79984Y13385D02*
X80264Y13425D01*
X79759Y13385D02*
X79787Y13425D01*
X75240Y13385D02*
X75212Y13425D01*
X54497Y13385D02*
X54891Y13425D01*
X84302Y13425D02*
X83553Y13503D01*
X80264Y13425D02*
X81013Y13503D01*
X79787Y13425D02*
X79862Y13503D01*
X75212Y13425D02*
X75137Y13503D01*
X69787Y13425D02*
X69862Y13503D01*
X81594Y13582D02*
X82972Y13582D01*
X83553Y13503D02*
X83366Y13543D01*
X81013Y13503D02*
X81200Y13543D01*
X69980Y13622D02*
X69986Y13622D01*
X74986Y13622D02*
X75019Y13622D01*
X83366Y13543D02*
X82972Y13582D01*
X81200Y13543D02*
X81594Y13582D01*
X13794Y13031D02*
X14220Y13582D01*
X18176Y13661D02*
X25396Y13661D01*
X14220Y13582D02*
X14248Y13622D01*
X75137Y13503D02*
X75019Y13622D01*
X69862Y13503D02*
X69980Y13622D01*
X69986Y13425D02*
X69986Y13622D01*
X74986Y12322D02*
X74986Y13622D01*
X14248Y13622D02*
X14283Y13661D01*
X14283Y13661D02*
X14330Y13700D01*
X2303Y13779D02*
X3582Y13779D01*
X10472Y13779D02*
X14462Y13779D01*
X18048Y13779D02*
X25514Y13779D01*
X31444Y13779D02*
X58014Y13779D01*
X80137Y13779D02*
X91082Y13779D01*
X97972Y13779D02*
X100196Y13779D01*
X14330Y13700D02*
X14398Y13740D01*
X14398Y13740D02*
X14522Y13818D01*
X18176Y13661D02*
X17919Y13897D01*
X17919Y13897D02*
X17872Y13937D01*
X17872Y13937D02*
X17804Y13976D01*
X32113Y14055D02*
X34508Y14055D01*
X35491Y14055D02*
X40108Y14055D01*
X17804Y13976D02*
X17725Y14015D01*
X34902Y14094D02*
X35097Y14094D01*
X27743Y10078D02*
X31720Y14055D01*
X40108Y14055D02*
X40502Y14094D01*
X35491Y14055D02*
X35097Y14094D01*
X34508Y14055D02*
X34902Y14094D01*
X40502Y14094D02*
X40682Y14133D01*
X14522Y13818D02*
X15004Y14133D01*
X40682Y14133D02*
X40750Y14173D01*
X15004Y14133D02*
X15072Y14173D01*
X40750Y14173D02*
X40797Y14212D01*
X15072Y14173D02*
X15211Y14212D01*
X40797Y14212D02*
X40833Y14251D01*
X17725Y14015D02*
X17186Y14251D01*
X2303Y14330D02*
X3031Y14330D01*
X11023Y14330D02*
X15678Y14330D01*
X17047Y14330D02*
X26065Y14330D01*
X40881Y14330D02*
X58565Y14330D01*
X80688Y14330D02*
X90531Y14330D01*
X98523Y14330D02*
X100196Y14330D01*
X40833Y14251D02*
X40860Y14291D01*
X40860Y14291D02*
X40881Y14330D01*
X17186Y14251D02*
X17047Y14330D01*
X40881Y14330D02*
X40896Y14370D01*
X17047Y14330D02*
X16867Y14370D01*
X15211Y14212D02*
X15833Y14370D01*
X40896Y14370D02*
X40907Y14409D01*
X16867Y14370D02*
X16474Y14409D01*
X15833Y14370D02*
X16014Y14409D01*
X40907Y14409D02*
X40913Y14448D01*
X16176Y14409D02*
X16095Y14448D01*
X16014Y14409D02*
X16095Y14448D01*
X40913Y14448D02*
X40915Y14527D01*
X84940Y14645D02*
X85187Y14685D01*
X84940Y14645D02*
X84692Y14685D01*
X44940Y14645D02*
X45187Y14685D01*
X44940Y14645D02*
X44692Y14685D01*
X85241Y14685D02*
X85635Y14724D01*
X84692Y14685D02*
X84512Y14724D01*
X45241Y14685D02*
X45635Y14724D01*
X44692Y14685D02*
X44512Y14724D01*
X85635Y14724D02*
X85815Y14763D01*
X45635Y14724D02*
X45815Y14763D01*
X84512Y14724D02*
X84201Y14803D01*
X44512Y14724D02*
X44201Y14803D01*
X2303Y14881D02*
X2480Y14881D01*
X11574Y14881D02*
X26616Y14881D01*
X40915Y14881D02*
X43843Y14881D01*
X46084Y14881D02*
X59116Y14881D01*
X81240Y14881D02*
X83843Y14881D01*
X86084Y14881D02*
X89980Y14881D01*
X99074Y14881D02*
X100196Y14881D01*
X84201Y14803D02*
X83843Y14881D01*
X44201Y14803D02*
X43843Y14881D01*
X83843Y14881D02*
X83775Y14921D01*
X43843Y14881D02*
X43775Y14921D01*
X97027Y12834D02*
X99110Y14921D01*
X92027Y12834D02*
X89944Y14921D01*
X9527Y12834D02*
X11610Y14921D01*
X4527Y12834D02*
X2444Y14921D01*
X99110Y14921D02*
X99137Y14960D01*
X89944Y14921D02*
X89917Y14960D01*
X83775Y14921D02*
X83728Y14960D01*
X43775Y14921D02*
X43728Y14960D01*
X11610Y14921D02*
X11637Y14960D01*
X2444Y14921D02*
X2417Y14960D01*
X99137Y14960D02*
X99158Y15000D01*
X89917Y14960D02*
X89896Y15000D01*
X83728Y14960D02*
X83673Y15000D01*
X43728Y14960D02*
X43673Y15000D01*
X11637Y14960D02*
X11658Y15000D01*
X2417Y14960D02*
X2396Y15000D01*
X99158Y15000D02*
X99173Y15039D01*
X89896Y15000D02*
X89881Y15039D01*
X11658Y15000D02*
X11673Y15039D01*
X2396Y15000D02*
X2381Y15039D01*
X85815Y14763D02*
X86443Y15039D01*
X45815Y14763D02*
X46443Y15039D01*
X99173Y15039D02*
X99184Y15078D01*
X89881Y15039D02*
X89870Y15078D01*
X86443Y15039D02*
X86556Y15078D01*
X46443Y15039D02*
X46556Y15078D01*
X11673Y15039D02*
X11684Y15078D01*
X2381Y15039D02*
X2370Y15078D01*
X99184Y15078D02*
X99190Y15118D01*
X89870Y15078D02*
X89864Y15118D01*
X86556Y15078D02*
X86624Y15118D01*
X46556Y15078D02*
X46624Y15118D01*
X11684Y15078D02*
X11690Y15118D01*
X2370Y15078D02*
X2364Y15118D01*
X86624Y15118D02*
X86671Y15157D01*
X46624Y15118D02*
X46671Y15157D01*
X99190Y15118D02*
X99192Y15196D01*
X89864Y15118D02*
X89862Y15196D01*
X11690Y15118D02*
X11692Y15196D01*
X2364Y15118D02*
X2362Y15196D01*
X86671Y15157D02*
X86745Y15236D01*
X46671Y15157D02*
X46745Y15236D01*
X79862Y13503D02*
X81669Y15314D01*
X40915Y15393D02*
X43081Y15393D01*
X81669Y15314D02*
X81696Y15354D01*
X83673Y15000D02*
X83130Y15354D01*
X43673Y15000D02*
X43130Y15354D01*
X2303Y15433D02*
X2362Y15433D01*
X11692Y15433D02*
X27168Y15433D01*
X46959Y15433D02*
X59668Y15433D01*
X81737Y15433D02*
X83033Y15433D01*
X86959Y15433D02*
X89862Y15433D01*
X99192Y15433D02*
X100196Y15433D01*
X43130Y15354D02*
X43081Y15393D01*
X40915Y14527D02*
X40915Y15393D01*
X83130Y15354D02*
X83033Y15433D01*
X81696Y15354D02*
X81737Y15433D01*
X57660Y13425D02*
X59668Y15433D01*
X83033Y15433D02*
X82998Y15472D01*
X81737Y15433D02*
X81752Y15472D01*
X81752Y15472D02*
X81763Y15511D01*
X59668Y15433D02*
X59765Y15511D01*
X81763Y15511D02*
X81769Y15551D01*
X81769Y15551D02*
X81771Y15629D01*
X86745Y15236D02*
X87173Y15629D01*
X46745Y15236D02*
X47173Y15629D01*
X87173Y15629D02*
X87225Y15669D01*
X47173Y15629D02*
X47225Y15669D01*
X87225Y15669D02*
X87272Y15708D01*
X47225Y15669D02*
X47272Y15708D01*
X87272Y15708D02*
X87307Y15748D01*
X47272Y15708D02*
X47307Y15748D01*
X87307Y15748D02*
X87335Y15787D01*
X47307Y15748D02*
X47335Y15787D01*
X87335Y15787D02*
X87355Y15826D01*
X47335Y15787D02*
X47355Y15826D01*
X59765Y15511D02*
X60234Y15826D01*
X87355Y15826D02*
X87371Y15866D01*
X60234Y15826D02*
X60281Y15866D01*
X47355Y15826D02*
X47371Y15866D01*
X60281Y15866D02*
X60349Y15905D01*
X2303Y15984D02*
X2362Y15984D01*
X11692Y15984D02*
X27719Y15984D01*
X47435Y15984D02*
X60774Y15984D01*
X81771Y15984D02*
X82600Y15984D01*
X87435Y15984D02*
X89862Y15984D01*
X99192Y15984D02*
X100196Y15984D01*
X60349Y15905D02*
X60530Y15944D01*
X60530Y15944D02*
X60774Y15984D01*
X61564Y16102D02*
X62743Y16102D01*
X60774Y15984D02*
X61170Y16062D01*
X61170Y16062D02*
X61564Y16102D01*
X82998Y15472D02*
X82480Y16141D01*
X82480Y16141D02*
X82459Y16181D01*
X63137Y16102D02*
X63216Y16181D01*
X63216Y16181D02*
X63228Y16220D01*
X82459Y16181D02*
X82430Y16259D01*
X24364Y16259D02*
X24659Y16299D01*
X24364Y16259D02*
X24069Y16299D01*
X24659Y16299D02*
X25048Y16338D01*
X24069Y16299D02*
X23889Y16338D01*
X25048Y16338D02*
X25228Y16377D01*
X21346Y16338D02*
X21405Y16377D01*
X21346Y16338D02*
X21286Y16377D01*
X21493Y16377D02*
X21880Y16417D01*
X21286Y16377D02*
X21106Y16417D01*
X21880Y16417D02*
X22172Y16456D01*
X23889Y16338D02*
X23423Y16456D01*
X2303Y16535D02*
X2362Y16535D01*
X11692Y16535D02*
X20640Y16535D01*
X22442Y16535D02*
X23175Y16535D01*
X25587Y16535D02*
X28270Y16535D01*
X47732Y16535D02*
X63228Y16535D01*
X81771Y16535D02*
X82336Y16535D01*
X87732Y16535D02*
X89862Y16535D01*
X99192Y16535D02*
X100196Y16535D01*
X23423Y16456D02*
X23243Y16496D01*
X22172Y16456D02*
X22352Y16496D01*
X23243Y16496D02*
X23175Y16535D01*
X23175Y16535D02*
X23124Y16574D01*
X21106Y16417D02*
X20484Y16574D01*
X87371Y15866D02*
X87748Y16574D01*
X47371Y15866D02*
X47748Y16574D01*
X20484Y16574D02*
X20338Y16614D01*
X22801Y16692D02*
X22943Y16692D01*
X20338Y16614D02*
X20270Y16653D01*
X87748Y16574D02*
X87773Y16653D01*
X47748Y16574D02*
X47773Y16653D01*
X25228Y16377D02*
X25857Y16653D01*
X25857Y16653D02*
X25956Y16692D01*
X23124Y16574D02*
X22943Y16692D01*
X22352Y16496D02*
X22801Y16692D01*
X25956Y16692D02*
X26024Y16732D01*
X26024Y16732D02*
X26071Y16771D01*
X26071Y16771D02*
X26109Y16811D01*
X20270Y16653D02*
X19728Y17007D01*
X82430Y16259D02*
X82176Y17007D01*
X2303Y17086D02*
X2362Y17086D01*
X11692Y17086D02*
X19592Y17086D01*
X26409Y17086D02*
X28821Y17086D01*
X47845Y17086D02*
X63228Y17086D01*
X81771Y17086D02*
X82161Y17086D01*
X87845Y17086D02*
X89862Y17086D01*
X99192Y17086D02*
X100196Y17086D01*
X82176Y17007D02*
X82161Y17086D01*
X19728Y17007D02*
X19592Y17086D01*
X19592Y17086D02*
X19545Y17125D01*
X19545Y17125D02*
X19510Y17165D01*
X82161Y17086D02*
X82159Y17165D01*
X26109Y16811D02*
X26494Y17165D01*
X26494Y17165D02*
X26551Y17204D01*
X26551Y17204D02*
X26653Y17244D01*
X26653Y17244D02*
X26721Y17283D01*
X19510Y17165D02*
X19425Y17283D01*
X26721Y17283D02*
X26768Y17322D01*
X25396Y13661D02*
X29057Y17322D01*
X29057Y17322D02*
X29084Y17362D01*
X26768Y17322D02*
X26804Y17362D01*
X26804Y17362D02*
X26831Y17401D01*
X26831Y17401D02*
X26870Y17440D01*
X87773Y16653D02*
X87905Y17440D01*
X26870Y17440D02*
X26917Y17480D01*
X47773Y16653D02*
X47911Y17480D01*
X47911Y17480D02*
X47913Y17519D01*
X47913Y17519D02*
X47911Y17559D01*
X2303Y17637D02*
X2362Y17637D01*
X11692Y17637D02*
X19150Y17637D01*
X27075Y17637D02*
X29084Y17637D01*
X47898Y17637D02*
X63228Y17637D01*
X81771Y17637D02*
X82159Y17637D01*
X88102Y17637D02*
X89862Y17637D01*
X99192Y17637D02*
X100196Y17637D01*
X19425Y17283D02*
X19000Y17834D01*
X19000Y17834D02*
X18955Y17913D01*
X82159Y17165D02*
X82161Y17952D01*
X82161Y17952D02*
X82176Y18031D01*
X18955Y17913D02*
X18912Y18031D01*
X82176Y18031D02*
X82200Y18110D01*
X47911Y17559D02*
X47819Y18110D01*
X2303Y18188D02*
X2362Y18188D01*
X11692Y18188D02*
X18858Y18188D01*
X27626Y18188D02*
X29084Y18188D01*
X47806Y18188D02*
X63228Y18188D01*
X81771Y18188D02*
X82227Y18188D01*
X88653Y18188D02*
X89862Y18188D01*
X99192Y18188D02*
X100196Y18188D01*
X47819Y18110D02*
X47773Y18385D01*
X47773Y18385D02*
X47748Y18464D01*
X47748Y18464D02*
X47732Y18503D01*
X2303Y18740D02*
X2362Y18740D01*
X11692Y18740D02*
X18669Y18740D01*
X28177Y18740D02*
X29084Y18740D01*
X47605Y18740D02*
X63228Y18740D01*
X81771Y18740D02*
X82417Y18740D01*
X89205Y18740D02*
X89862Y18740D01*
X99192Y18740D02*
X100196Y18740D01*
X18912Y18031D02*
X18669Y18740D01*
X18669Y18740D02*
X18663Y18779D01*
X18663Y18779D02*
X18660Y18858D01*
X82200Y18110D02*
X82459Y18858D01*
X82459Y18858D02*
X82480Y18897D01*
X47732Y18503D02*
X47520Y18897D01*
X82480Y18897D02*
X82538Y18976D01*
X87905Y17440D02*
X89598Y19133D01*
X47520Y18897D02*
X47371Y19173D01*
X47371Y19173D02*
X47355Y19212D01*
X89598Y19133D02*
X89692Y19212D01*
X2303Y19291D02*
X2362Y19291D01*
X11692Y19291D02*
X18660Y19291D01*
X28728Y19291D02*
X29084Y19291D01*
X47307Y19291D02*
X63228Y19291D01*
X81771Y19291D02*
X82783Y19291D01*
X89755Y19291D02*
X89862Y19291D01*
X99192Y19291D02*
X100196Y19291D01*
X89692Y19212D02*
X89727Y19251D01*
X47355Y19212D02*
X47335Y19251D01*
X89727Y19251D02*
X89755Y19291D01*
X47335Y19251D02*
X47307Y19291D01*
X47307Y19291D02*
X47272Y19330D01*
X47272Y19330D02*
X47225Y19370D01*
X89755Y19291D02*
X89797Y19370D01*
X89850Y19448D02*
X89864Y19448D01*
X47225Y19370D02*
X47173Y19409D01*
X89797Y19370D02*
X89850Y19448D01*
X99192Y15196D02*
X99190Y19448D01*
X89862Y15196D02*
X89864Y19448D01*
X11692Y15196D02*
X11690Y19448D01*
X2362Y15196D02*
X2364Y19448D01*
X99190Y19448D02*
X99184Y19488D01*
X11690Y19448D02*
X11684Y19488D01*
X2364Y19448D02*
X2370Y19488D01*
X63228Y16220D02*
X63230Y19488D01*
X81771Y15629D02*
X81769Y19488D01*
X99184Y19488D02*
X99173Y19527D01*
X81769Y19488D02*
X81763Y19527D01*
X63230Y19488D02*
X63236Y19527D01*
X11684Y19488D02*
X11673Y19527D01*
X2370Y19488D02*
X2381Y19527D01*
X99173Y19527D02*
X99158Y19566D01*
X81763Y19527D02*
X81752Y19566D01*
X63236Y19527D02*
X63247Y19566D01*
X11673Y19527D02*
X11658Y19566D01*
X2381Y19527D02*
X2396Y19566D01*
X82538Y18976D02*
X82998Y19566D01*
X29083Y19645D02*
X29084Y19645D01*
X40915Y19645D02*
X43081Y19645D01*
X99158Y19566D02*
X99137Y19606D01*
X82998Y19566D02*
X83033Y19606D01*
X81752Y19566D02*
X81737Y19606D01*
X63247Y19566D02*
X63262Y19606D01*
X11658Y19566D02*
X11637Y19606D01*
X2396Y19566D02*
X2417Y19606D01*
X99137Y19606D02*
X99110Y19645D01*
X81737Y19606D02*
X81716Y19645D01*
X63262Y19606D02*
X63283Y19645D01*
X11637Y19606D02*
X11610Y19645D01*
X2417Y19606D02*
X2444Y19645D01*
X26917Y17480D02*
X29083Y19645D01*
X29084Y17362D02*
X29084Y19645D01*
X81716Y19645D02*
X81688Y19685D01*
X63283Y19645D02*
X63311Y19685D01*
X43081Y19645D02*
X43130Y19685D01*
X83033Y19606D02*
X83130Y19685D01*
X18660Y18858D02*
X18663Y19685D01*
X81688Y19685D02*
X81653Y19724D01*
X63311Y19685D02*
X63346Y19724D01*
X18663Y19685D02*
X18669Y19724D01*
X99110Y19645D02*
X99035Y19724D01*
X11610Y19645D02*
X11535Y19724D01*
X2444Y19645D02*
X2519Y19724D01*
X90094Y19803D02*
X90098Y19803D01*
X81653Y19724D02*
X81606Y19763D01*
X63346Y19724D02*
X63393Y19763D01*
X2303Y19842D02*
X2637Y19842D01*
X11417Y19842D02*
X18707Y19842D01*
X40915Y19842D02*
X43371Y19842D01*
X46706Y19842D02*
X63484Y19842D01*
X81515Y19842D02*
X83371Y19842D01*
X90122Y19842D02*
X90137Y19842D01*
X98917Y19842D02*
X100196Y19842D01*
X81606Y19763D02*
X81555Y19803D01*
X63393Y19763D02*
X63444Y19803D01*
X18669Y19724D02*
X18694Y19803D01*
X90143Y19881D02*
X90177Y19881D01*
X47173Y19409D02*
X46706Y19842D01*
X46706Y19842D02*
X46671Y19881D01*
X90143Y19881D02*
X90158Y19921D01*
X46671Y19881D02*
X46624Y19921D01*
X90158Y19921D02*
X90169Y19960D01*
X46624Y19921D02*
X46556Y19960D01*
X46556Y19960D02*
X46443Y20000D01*
X83130Y19685D02*
X83673Y20039D01*
X43130Y19685D02*
X43673Y20039D01*
X83673Y20039D02*
X83728Y20078D01*
X43673Y20039D02*
X43728Y20078D01*
X83728Y20078D02*
X83775Y20118D01*
X43728Y20078D02*
X43775Y20118D01*
X90169Y19960D02*
X90197Y20118D01*
X83775Y20118D02*
X83843Y20157D01*
X43775Y20118D02*
X43843Y20157D01*
X83843Y20157D02*
X84201Y20236D01*
X43843Y20157D02*
X44201Y20236D01*
X46443Y20000D02*
X45815Y20275D01*
X45815Y20275D02*
X45635Y20314D01*
X84201Y20236D02*
X84512Y20314D01*
X44201Y20236D02*
X44512Y20314D01*
X2303Y20393D02*
X3189Y20393D01*
X10866Y20393D02*
X18896Y20393D01*
X40915Y20393D02*
X64035Y20393D01*
X80964Y20393D02*
X84928Y20393D01*
X90252Y20393D02*
X90689Y20393D01*
X98366Y20393D02*
X100196Y20393D01*
X84512Y20314D02*
X84692Y20354D01*
X45635Y20314D02*
X45241Y20354D01*
X44512Y20314D02*
X44692Y20354D01*
X84692Y20354D02*
X84928Y20393D01*
X45187Y20354D02*
X44940Y20393D01*
X44692Y20354D02*
X44940Y20393D01*
X18694Y19803D02*
X18934Y20511D01*
X18934Y20511D02*
X18945Y20551D01*
X40915Y19645D02*
X40913Y20551D01*
X40913Y20551D02*
X40907Y20590D01*
X18945Y20551D02*
X18960Y20590D01*
X40907Y20590D02*
X40896Y20629D01*
X18960Y20590D02*
X18981Y20629D01*
X40896Y20629D02*
X40881Y20669D01*
X18981Y20629D02*
X19008Y20669D01*
X90197Y20118D02*
X90304Y20669D01*
X40881Y20669D02*
X40860Y20708D01*
X40860Y20708D02*
X40833Y20748D01*
X90304Y20669D02*
X90306Y20748D01*
X40833Y20748D02*
X40797Y20787D01*
X19008Y20669D02*
X19113Y20787D01*
X40797Y20787D02*
X40750Y20826D01*
X34902Y20905D02*
X35097Y20905D01*
X40750Y20826D02*
X40682Y20866D01*
X2303Y20944D02*
X3740Y20944D01*
X10314Y20944D02*
X19236Y20944D01*
X30382Y20944D02*
X64586Y20944D01*
X80413Y20944D02*
X85479Y20944D01*
X90306Y20944D02*
X91240Y20944D01*
X97814Y20944D02*
X100196Y20944D01*
X40682Y20866D02*
X40502Y20905D01*
X40502Y20905D02*
X40108Y20944D01*
X35097Y20905D02*
X35491Y20944D01*
X34902Y20905D02*
X34508Y20944D01*
X69980Y21377D02*
X69986Y21377D01*
X74986Y21377D02*
X75019Y21377D01*
X19113Y20787D02*
X19545Y21338D01*
X19545Y21338D02*
X19592Y21377D01*
X2303Y21496D02*
X4291Y21496D01*
X9763Y21496D02*
X19776Y21496D01*
X30933Y21496D02*
X65137Y21496D01*
X69862Y21496D02*
X69986Y21496D01*
X74986Y21496D02*
X75137Y21496D01*
X79862Y21496D02*
X86031Y21496D01*
X90306Y21496D02*
X91791Y21496D01*
X97263Y21496D02*
X100196Y21496D01*
X19592Y21377D02*
X19716Y21456D01*
X84928Y20393D02*
X86070Y21535D01*
X86070Y21535D02*
X86093Y21574D01*
X75019Y21377D02*
X75255Y21614D01*
X69980Y21377D02*
X69744Y21614D01*
X81555Y19803D02*
X79744Y21614D01*
X63444Y19803D02*
X65255Y21614D01*
X79744Y21614D02*
X79696Y21653D01*
X75255Y21614D02*
X75303Y21653D01*
X69744Y21614D02*
X69696Y21653D01*
X65255Y21614D02*
X65303Y21653D01*
X22908Y21732D02*
X23175Y21732D01*
X79696Y21653D02*
X79629Y21692D01*
X75303Y21653D02*
X75370Y21692D01*
X69696Y21653D02*
X69629Y21692D01*
X65303Y21653D02*
X65370Y21692D01*
X75944Y21771D02*
X79055Y21771D01*
X79629Y21692D02*
X79448Y21732D01*
X75370Y21692D02*
X75551Y21732D01*
X69629Y21692D02*
X69606Y21732D01*
X65370Y21692D02*
X65393Y21732D01*
X11535Y19724D02*
X9527Y21732D01*
X2519Y19724D02*
X4527Y21732D01*
X79448Y21732D02*
X79055Y21771D01*
X75551Y21732D02*
X75944Y21771D01*
X23175Y21732D02*
X23243Y21771D01*
X23243Y21771D02*
X23423Y21811D01*
X19716Y21456D02*
X20258Y21811D01*
X90177Y19881D02*
X92106Y21811D01*
X99035Y19724D02*
X96948Y21811D01*
X96948Y21811D02*
X96901Y21850D01*
X92106Y21811D02*
X92153Y21850D01*
X23423Y21811D02*
X23625Y21850D01*
X20258Y21811D02*
X20326Y21850D01*
X96901Y21850D02*
X96833Y21889D01*
X92153Y21850D02*
X92221Y21889D01*
X20326Y21850D02*
X20454Y21889D01*
X92795Y21968D02*
X96259Y21968D01*
X96833Y21889D02*
X96653Y21929D01*
X92221Y21889D02*
X92401Y21929D01*
X23625Y21850D02*
X23936Y21929D01*
X22908Y21732D02*
X22459Y21929D01*
X96653Y21929D02*
X96259Y21968D01*
X92401Y21929D02*
X92795Y21968D01*
X23936Y21929D02*
X24116Y21968D01*
X22459Y21929D02*
X22377Y21968D01*
X2303Y22047D02*
X4527Y22047D01*
X9527Y22047D02*
X21076Y22047D01*
X22129Y22047D02*
X24441Y22047D01*
X31484Y22047D02*
X65393Y22047D01*
X69606Y22047D02*
X69986Y22047D01*
X74986Y22047D02*
X86093Y22047D01*
X90306Y22047D02*
X100196Y22047D01*
X24116Y21968D02*
X24402Y22007D01*
X22377Y21968D02*
X22309Y22007D01*
X22309Y22007D02*
X22129Y22047D01*
X20454Y21889D02*
X21076Y22047D01*
X74986Y21377D02*
X74986Y22047D01*
X74986Y22047D02*
X74996Y22086D01*
X22129Y22047D02*
X21736Y22086D01*
X21076Y22047D02*
X21256Y22086D01*
X21497Y22086D02*
X21377Y22125D01*
X21256Y22086D02*
X21377Y22125D01*
X69606Y21732D02*
X69606Y22125D01*
X69606Y22125D02*
X69618Y22165D01*
X69972Y22519D02*
X69986Y22519D01*
X69618Y22165D02*
X69972Y22519D01*
X69986Y21377D02*
X69986Y22519D01*
X2303Y22598D02*
X4527Y22598D01*
X9527Y22598D02*
X24992Y22598D01*
X32036Y22598D02*
X65393Y22598D01*
X75508Y22598D02*
X86093Y22598D01*
X90306Y22598D02*
X100196Y22598D01*
X96259Y22598D02*
X96653Y22637D01*
X92795Y22598D02*
X92401Y22637D01*
X96653Y22637D02*
X96833Y22677D01*
X92401Y22637D02*
X92221Y22677D01*
X96833Y22677D02*
X96901Y22716D01*
X92221Y22677D02*
X92153Y22716D01*
X96901Y22716D02*
X96948Y22755D01*
X92153Y22716D02*
X92106Y22755D01*
X9527Y21732D02*
X9527Y22834D01*
X4527Y21732D02*
X4527Y22834D01*
X65393Y21732D02*
X65395Y23031D01*
X24765Y23110D02*
X25110Y23110D01*
X2303Y23149D02*
X4212Y23149D01*
X9842Y23149D02*
X24371Y23149D01*
X32587Y23149D02*
X65413Y23149D01*
X76059Y23149D02*
X86093Y23149D01*
X90306Y23149D02*
X91712Y23149D01*
X97342Y23149D02*
X100196Y23149D01*
X65395Y23031D02*
X65405Y23110D01*
X24402Y22007D02*
X25504Y23110D01*
X24765Y23110D02*
X24371Y23149D01*
X24371Y23149D02*
X23260Y23385D01*
X23260Y23385D02*
X23079Y23425D01*
X2303Y23700D02*
X3661Y23700D01*
X10393Y23700D02*
X22460Y23700D01*
X33138Y23700D02*
X65523Y23700D01*
X76610Y23700D02*
X86093Y23700D01*
X90306Y23700D02*
X91161Y23700D01*
X97893Y23700D02*
X100196Y23700D01*
X65405Y23110D02*
X65541Y23779D01*
X65541Y23779D02*
X65557Y23818D01*
X65557Y23818D02*
X65577Y23858D01*
X23079Y23425D02*
X22107Y23858D01*
X22107Y23858D02*
X22004Y23897D01*
X22004Y23897D02*
X21937Y23937D01*
X21937Y23937D02*
X21889Y23976D01*
X65577Y23858D02*
X65710Y24055D01*
X21889Y23976D02*
X21728Y24094D01*
X2303Y24251D02*
X3110Y24251D01*
X10944Y24251D02*
X21512Y24251D01*
X33689Y24251D02*
X65842Y24251D01*
X77162Y24251D02*
X86093Y24251D01*
X90306Y24251D02*
X90610Y24251D01*
X98444Y24251D02*
X100196Y24251D01*
X65710Y24055D02*
X65972Y24448D01*
X90306Y24527D02*
X90334Y24527D01*
X65972Y24448D02*
X66007Y24488D01*
X74996Y22086D02*
X77398Y24488D01*
X92106Y22755D02*
X90334Y24527D01*
X90306Y20748D02*
X90306Y24527D01*
X66007Y24488D02*
X66090Y24566D01*
X21728Y24094D02*
X21024Y24606D01*
X21024Y24606D02*
X20928Y24685D01*
X2303Y24803D02*
X2559Y24803D01*
X11496Y24803D02*
X20821Y24803D01*
X34240Y24803D02*
X66326Y24803D01*
X78116Y24803D02*
X86093Y24803D01*
X98996Y24803D02*
X100196Y24803D01*
X77398Y24488D02*
X78116Y24803D01*
X30382Y20944D02*
X34240Y24803D01*
X78116Y24803D02*
X78199Y24842D01*
X34240Y24803D02*
X34287Y24842D01*
X78199Y24842D02*
X78266Y24881D01*
X34287Y24842D02*
X34323Y24881D01*
X78266Y24881D02*
X78314Y24921D01*
X34323Y24881D02*
X34350Y24921D01*
X9527Y22834D02*
X11610Y24921D01*
X4527Y22834D02*
X2444Y24921D01*
X96948Y22755D02*
X99110Y24921D01*
X99110Y24921D02*
X99137Y24960D01*
X34350Y24921D02*
X34382Y24960D01*
X11610Y24921D02*
X11637Y24960D01*
X2444Y24921D02*
X2417Y24960D01*
X99137Y24960D02*
X99158Y25000D01*
X11637Y24960D02*
X11658Y25000D01*
X2417Y24960D02*
X2396Y25000D01*
X99158Y25000D02*
X99173Y25039D01*
X11658Y25000D02*
X11673Y25039D01*
X2396Y25000D02*
X2381Y25039D01*
X34382Y24960D02*
X34455Y25039D01*
X99173Y25039D02*
X99184Y25078D01*
X34455Y25039D02*
X34482Y25078D01*
X11673Y25039D02*
X11684Y25078D01*
X2381Y25039D02*
X2370Y25078D01*
X99184Y25078D02*
X99190Y25118D01*
X11684Y25078D02*
X11690Y25118D01*
X2370Y25078D02*
X2364Y25118D01*
X99190Y25118D02*
X99192Y25196D01*
X11690Y25118D02*
X11692Y25196D01*
X2364Y25118D02*
X2362Y25196D01*
X2303Y25354D02*
X2362Y25354D01*
X11692Y25354D02*
X20325Y25354D01*
X34648Y25354D02*
X66877Y25354D01*
X78784Y25354D02*
X86093Y25354D01*
X99192Y25354D02*
X100196Y25354D01*
X34482Y25078D02*
X34621Y25314D01*
X34621Y25314D02*
X34703Y25433D01*
X34703Y25433D02*
X34738Y25472D01*
X78314Y24921D02*
X78910Y25472D01*
X78910Y25472D02*
X78945Y25511D01*
X34738Y25472D02*
X34766Y25511D01*
X39805Y25590D02*
X40194Y25590D01*
X78945Y25511D02*
X78973Y25551D01*
X34766Y25511D02*
X34786Y25551D01*
X34786Y25551D02*
X34802Y25590D01*
X20928Y24685D02*
X20113Y25590D01*
X40194Y25590D02*
X40588Y25629D01*
X39805Y25590D02*
X39411Y25629D01*
X20113Y25590D02*
X20086Y25629D01*
X40588Y25629D02*
X40768Y25669D01*
X39411Y25629D02*
X39231Y25669D01*
X34802Y25590D02*
X34823Y25669D01*
X40768Y25669D02*
X40906Y25708D01*
X39231Y25669D02*
X39093Y25708D01*
X34823Y25669D02*
X34844Y25708D01*
X81102Y25826D02*
X83070Y25826D01*
X34844Y25708D02*
X34875Y25787D01*
X40906Y25708D02*
X41462Y25826D01*
X39093Y25708D02*
X38537Y25826D01*
X2303Y25905D02*
X2362Y25905D01*
X11692Y25905D02*
X19926Y25905D01*
X34899Y25905D02*
X38080Y25905D01*
X41919Y25905D02*
X67428Y25905D01*
X79164Y25905D02*
X80510Y25905D01*
X83662Y25905D02*
X86093Y25905D01*
X99192Y25905D02*
X100196Y25905D01*
X83070Y25826D02*
X83464Y25866D01*
X81102Y25826D02*
X80708Y25866D01*
X41462Y25826D02*
X41739Y25866D01*
X38537Y25826D02*
X38260Y25866D01*
X34875Y25787D02*
X34892Y25866D01*
X41739Y25866D02*
X41919Y25905D01*
X38260Y25866D02*
X38080Y25905D01*
X83464Y25866D02*
X83860Y25944D01*
X80708Y25866D02*
X80312Y25944D01*
X83860Y25944D02*
X84112Y25984D01*
X80312Y25944D02*
X80060Y25984D01*
X41919Y25905D02*
X42052Y25984D01*
X38080Y25905D02*
X37947Y25984D01*
X84112Y25984D02*
X84292Y26023D01*
X80060Y25984D02*
X79880Y26023D01*
X84292Y26023D02*
X84360Y26062D01*
X79880Y26023D02*
X79812Y26062D01*
X84360Y26062D02*
X84407Y26102D01*
X79812Y26062D02*
X79765Y26102D01*
X34892Y25866D02*
X34936Y26102D01*
X84407Y26102D02*
X84462Y26141D01*
X79765Y26102D02*
X79711Y26141D01*
X79395Y26338D02*
X79416Y26338D01*
X79711Y26141D02*
X79416Y26338D01*
X78973Y25551D02*
X79395Y26338D01*
X34936Y26102D02*
X35006Y26377D01*
X42052Y25984D02*
X42936Y26377D01*
X37947Y25984D02*
X37063Y26377D01*
X2303Y26456D02*
X2362Y26456D01*
X11692Y26456D02*
X19608Y26456D01*
X35006Y26456D02*
X36918Y26456D01*
X43081Y26456D02*
X67979Y26456D01*
X84925Y26456D02*
X86093Y26456D01*
X99192Y26456D02*
X100196Y26456D01*
X42936Y26377D02*
X43013Y26417D01*
X37063Y26377D02*
X36986Y26417D01*
X35006Y26377D02*
X35009Y26417D01*
X84462Y26141D02*
X84874Y26417D01*
X43013Y26417D02*
X43081Y26456D01*
X36986Y26417D02*
X36918Y26456D01*
X84874Y26417D02*
X84972Y26496D01*
X35009Y26417D02*
X35003Y26496D01*
X49891Y26574D02*
X54508Y26574D01*
X55491Y26574D02*
X60108Y26574D01*
X54902Y26614D02*
X55097Y26614D01*
X35003Y26496D02*
X35014Y26574D01*
X60108Y26574D02*
X60502Y26614D01*
X55491Y26574D02*
X55097Y26614D01*
X54508Y26574D02*
X54902Y26614D01*
X49891Y26574D02*
X49497Y26614D01*
X60502Y26614D02*
X60682Y26653D01*
X49497Y26614D02*
X49317Y26653D01*
X35014Y26574D02*
X35016Y26653D01*
X60682Y26653D02*
X60750Y26692D01*
X49317Y26653D02*
X49249Y26692D01*
X20086Y25629D02*
X19475Y26692D01*
X60750Y26692D02*
X60797Y26732D01*
X49249Y26692D02*
X49202Y26732D01*
X60797Y26732D02*
X60833Y26771D01*
X49202Y26732D02*
X49166Y26771D01*
X19475Y26692D02*
X19447Y26771D01*
X60833Y26771D02*
X60860Y26811D01*
X49166Y26771D02*
X49139Y26811D01*
X60860Y26811D02*
X60881Y26850D01*
X49139Y26811D02*
X49118Y26850D01*
X60881Y26850D02*
X60896Y26889D01*
X49118Y26850D02*
X49103Y26889D01*
X60896Y26889D02*
X60907Y26929D01*
X49103Y26889D02*
X49092Y26929D01*
X2303Y27007D02*
X2362Y27007D01*
X11692Y27007D02*
X19370Y27007D01*
X35016Y27007D02*
X36159Y27007D01*
X43840Y27007D02*
X49084Y27007D01*
X60915Y27007D02*
X68531Y27007D01*
X85484Y27007D02*
X86093Y27007D01*
X99192Y27007D02*
X100196Y27007D01*
X60907Y26929D02*
X60913Y26968D01*
X49092Y26929D02*
X49086Y26968D01*
X60913Y26968D02*
X60915Y27047D01*
X49086Y26968D02*
X49084Y27047D01*
X43081Y26456D02*
X43948Y27086D01*
X36918Y26456D02*
X36051Y27086D01*
X43948Y27086D02*
X44015Y27125D01*
X36051Y27086D02*
X35984Y27125D01*
X44015Y27125D02*
X44062Y27165D01*
X35984Y27125D02*
X35937Y27165D01*
X44062Y27165D02*
X44097Y27204D01*
X35937Y27165D02*
X35902Y27204D01*
X44097Y27204D02*
X44125Y27244D01*
X35902Y27204D02*
X35874Y27244D01*
X2303Y27559D02*
X2362Y27559D01*
X11692Y27559D02*
X19191Y27559D01*
X35016Y27559D02*
X35591Y27559D01*
X44408Y27559D02*
X49084Y27559D01*
X60915Y27559D02*
X69082Y27559D01*
X86035Y27559D02*
X86093Y27559D01*
X99192Y27559D02*
X100196Y27559D01*
X86075Y27598D02*
X86093Y27598D01*
X84972Y26496D02*
X86075Y27598D01*
X86093Y21574D02*
X86093Y27598D01*
X19447Y26771D02*
X19088Y27874D01*
X19088Y27874D02*
X19078Y27952D01*
X44125Y27244D02*
X44763Y27952D01*
X35874Y27244D02*
X35236Y27952D01*
X44763Y27952D02*
X44802Y27992D01*
X35236Y27952D02*
X35197Y27992D01*
X44802Y27992D02*
X44849Y28031D01*
X35197Y27992D02*
X35150Y28031D01*
X2303Y28110D02*
X2362Y28110D01*
X11692Y28110D02*
X19062Y28110D01*
X35016Y28110D02*
X35087Y28110D01*
X44912Y28110D02*
X49084Y28110D01*
X60915Y28110D02*
X69633Y28110D01*
X99192Y28110D02*
X100196Y28110D01*
X44849Y28031D02*
X44885Y28070D01*
X35150Y28031D02*
X35114Y28070D01*
X44885Y28070D02*
X44912Y28110D01*
X35114Y28070D02*
X35087Y28110D01*
X44912Y28110D02*
X44933Y28149D01*
X35087Y28110D02*
X35066Y28149D01*
X35016Y28228D02*
X35029Y28228D01*
X44933Y28149D02*
X44949Y28188D01*
X35066Y28149D02*
X35050Y28188D01*
X35050Y28188D02*
X35029Y28228D01*
X35016Y26653D02*
X35016Y28228D01*
X44949Y28188D02*
X45038Y28346D01*
X2303Y28661D02*
X2362Y28661D01*
X11692Y28661D02*
X19004Y28661D01*
X45220Y28661D02*
X49084Y28661D01*
X60915Y28661D02*
X70184Y28661D01*
X99192Y28661D02*
X100196Y28661D01*
X45038Y28346D02*
X45473Y29094D01*
X45473Y29094D02*
X45501Y29133D01*
X19078Y27952D02*
X18956Y29133D01*
X2303Y29212D02*
X2362Y29212D01*
X11692Y29212D02*
X18956Y29212D01*
X45537Y29212D02*
X49084Y29212D01*
X60915Y29212D02*
X70735Y29212D01*
X99192Y29212D02*
X100196Y29212D01*
X45501Y29133D02*
X45522Y29173D01*
X45522Y29173D02*
X45537Y29212D01*
X45537Y29212D02*
X45571Y29330D01*
X99192Y25196D02*
X99190Y29448D01*
X11692Y25196D02*
X11690Y29448D01*
X2362Y25196D02*
X2364Y29448D01*
X99190Y29448D02*
X99184Y29488D01*
X11690Y29448D02*
X11684Y29488D01*
X2364Y29448D02*
X2370Y29488D01*
X99184Y29488D02*
X99173Y29527D01*
X11684Y29488D02*
X11673Y29527D01*
X2370Y29488D02*
X2381Y29527D01*
X99173Y29527D02*
X99158Y29566D01*
X11673Y29527D02*
X11658Y29566D01*
X2381Y29527D02*
X2396Y29566D01*
X99158Y29566D02*
X99137Y29606D01*
X11658Y29566D02*
X11637Y29606D01*
X2396Y29566D02*
X2417Y29606D01*
X99137Y29606D02*
X99110Y29645D01*
X11637Y29606D02*
X11610Y29645D01*
X2417Y29606D02*
X2444Y29645D01*
X2303Y29763D02*
X2559Y29763D01*
X11496Y29763D02*
X18956Y29763D01*
X45712Y29763D02*
X49084Y29763D01*
X60915Y29763D02*
X71287Y29763D01*
X98996Y29763D02*
X100196Y29763D01*
X99110Y29645D02*
X99035Y29724D01*
X11610Y29645D02*
X11535Y29724D01*
X2444Y29645D02*
X2519Y29724D01*
X81547Y30078D02*
X82625Y30078D01*
X2303Y30314D02*
X3110Y30314D01*
X10944Y30314D02*
X18956Y30314D01*
X45891Y30314D02*
X49084Y30314D01*
X60915Y30314D02*
X71838Y30314D01*
X81311Y30314D02*
X82861Y30314D01*
X98444Y30314D02*
X100196Y30314D01*
X45571Y29330D02*
X45902Y30354D01*
X45902Y30354D02*
X45912Y30393D01*
X45912Y30393D02*
X45923Y30472D01*
X99035Y29724D02*
X98208Y30551D01*
X98208Y30551D02*
X98232Y30590D01*
X98232Y30590D02*
X98291Y30629D01*
X98291Y30629D02*
X98363Y30669D01*
X98363Y30669D02*
X98431Y30708D01*
X98431Y30708D02*
X98478Y30748D01*
X82625Y30078D02*
X83294Y30748D01*
X98478Y30748D02*
X98514Y30787D01*
X83294Y30748D02*
X83326Y30787D01*
X2303Y30866D02*
X3661Y30866D01*
X10393Y30866D02*
X18956Y30866D01*
X45964Y30866D02*
X49084Y30866D01*
X60915Y30866D02*
X72389Y30866D01*
X80760Y30866D02*
X83326Y30866D01*
X98582Y30866D02*
X100196Y30866D01*
X98514Y30787D02*
X98542Y30826D01*
X18956Y29133D02*
X18958Y31338D01*
X2303Y31417D02*
X4212Y31417D01*
X9842Y31417D02*
X18967Y31417D01*
X46022Y31417D02*
X49084Y31417D01*
X60915Y31417D02*
X72940Y31417D01*
X80209Y31417D02*
X83326Y31417D01*
X99133Y31417D02*
X100196Y31417D01*
X45923Y30472D02*
X46043Y31614D01*
X81547Y30078D02*
X79854Y31771D01*
X66090Y24566D02*
X73294Y31771D01*
X11535Y29724D02*
X9448Y31811D01*
X2519Y29724D02*
X4606Y31811D01*
X9448Y31811D02*
X9401Y31850D01*
X4606Y31811D02*
X4653Y31850D01*
X79854Y31771D02*
X79756Y31850D01*
X73294Y31771D02*
X73393Y31850D01*
X9401Y31850D02*
X9333Y31889D01*
X4653Y31850D02*
X4721Y31889D01*
X2303Y31968D02*
X19024Y31968D01*
X46043Y31968D02*
X49084Y31968D01*
X60915Y31968D02*
X73569Y31968D01*
X79579Y31968D02*
X83326Y31968D01*
X99684Y31968D02*
X100196Y31968D01*
X9333Y31889D02*
X9153Y31929D01*
X4721Y31889D02*
X4901Y31929D01*
X9153Y31929D02*
X8759Y31968D01*
X4901Y31929D02*
X5295Y31968D01*
X79756Y31850D02*
X79344Y32125D01*
X73393Y31850D02*
X73805Y32125D01*
X79344Y32125D02*
X79289Y32165D01*
X73805Y32125D02*
X73860Y32165D01*
X79289Y32165D02*
X79242Y32204D01*
X73860Y32165D02*
X73907Y32204D01*
X79242Y32204D02*
X79174Y32244D01*
X73907Y32204D02*
X73975Y32244D01*
X79174Y32244D02*
X78994Y32283D01*
X73975Y32244D02*
X74155Y32283D01*
X78994Y32283D02*
X78742Y32322D01*
X74155Y32283D02*
X74407Y32322D01*
X75196Y32440D02*
X77952Y32440D01*
X78742Y32322D02*
X78346Y32401D01*
X74407Y32322D02*
X74803Y32401D01*
X100196Y32480D02*
X100196Y32480D01*
X78346Y32401D02*
X77952Y32440D01*
X74803Y32401D02*
X75196Y32440D01*
X2303Y32519D02*
X19081Y32519D01*
X46043Y32519D02*
X49084Y32519D01*
X60915Y32519D02*
X83326Y32519D01*
X98542Y30826D02*
X100196Y32480D01*
X100196Y2322D02*
X100196Y32480D01*
X18958Y31338D02*
X19088Y32559D01*
X19088Y32559D02*
X19098Y32598D01*
X19098Y32598D02*
X19127Y32677D01*
X2303Y33070D02*
X19255Y33070D01*
X46043Y33070D02*
X49092Y33070D01*
X60907Y33070D02*
X83326Y33070D01*
X60915Y27047D02*
X60913Y33031D01*
X49084Y27047D02*
X49086Y33031D01*
X60913Y33031D02*
X60907Y33070D01*
X49086Y33031D02*
X49092Y33070D01*
X60907Y33070D02*
X60896Y33110D01*
X49092Y33070D02*
X49103Y33110D01*
X60896Y33110D02*
X60881Y33149D01*
X49103Y33110D02*
X49118Y33149D01*
X60881Y33149D02*
X60860Y33188D01*
X49118Y33149D02*
X49139Y33188D01*
X60860Y33188D02*
X60833Y33228D01*
X49139Y33188D02*
X49166Y33228D01*
X60833Y33228D02*
X60797Y33267D01*
X49166Y33228D02*
X49202Y33267D01*
X60797Y33267D02*
X60750Y33307D01*
X49202Y33267D02*
X49249Y33307D01*
X54902Y33385D02*
X55097Y33385D01*
X60750Y33307D02*
X60682Y33346D01*
X49249Y33307D02*
X49317Y33346D01*
X60682Y33346D02*
X60502Y33385D01*
X49317Y33346D02*
X49497Y33385D01*
X60502Y33385D02*
X60108Y33425D01*
X55097Y33385D02*
X55491Y33425D01*
X54902Y33385D02*
X54508Y33425D01*
X49497Y33385D02*
X49891Y33425D01*
X2303Y33622D02*
X19434Y33622D01*
X46043Y33622D02*
X50093Y33622D01*
X54306Y33622D02*
X55693Y33622D01*
X59906Y33622D02*
X83326Y33622D01*
X59906Y33425D02*
X59906Y33700D01*
X59906Y33700D02*
X59933Y33740D01*
X19127Y32677D02*
X19475Y33740D01*
X19475Y33740D02*
X19540Y33858D01*
X54306Y33425D02*
X54306Y33858D01*
X46043Y31614D02*
X46041Y33858D01*
X46041Y33858D02*
X46030Y33937D01*
X54306Y33858D02*
X54422Y33976D01*
X2303Y34173D02*
X19722Y34173D01*
X46006Y34173D02*
X50093Y34173D01*
X54619Y34173D02*
X55693Y34173D01*
X60366Y34173D02*
X83326Y34173D01*
X55693Y33425D02*
X55695Y34606D01*
X2303Y34724D02*
X20040Y34724D01*
X45948Y34724D02*
X50093Y34724D01*
X55170Y34724D02*
X55716Y34724D01*
X60917Y34724D02*
X83326Y34724D01*
X55695Y34606D02*
X55724Y34763D01*
X50093Y33425D02*
X50095Y34763D01*
X19540Y33858D02*
X20086Y34803D01*
X20086Y34803D02*
X20113Y34842D01*
X50095Y34763D02*
X50110Y34842D01*
X46030Y33937D02*
X45912Y35039D01*
X20113Y34842D02*
X20325Y35078D01*
X83326Y30787D02*
X83328Y35078D01*
X45912Y35039D02*
X45878Y35157D01*
X83328Y35078D02*
X83350Y35196D01*
X2303Y35275D02*
X20502Y35275D01*
X45840Y35275D02*
X50197Y35275D01*
X55721Y35275D02*
X55824Y35275D01*
X61468Y35275D02*
X83366Y35275D01*
X55839Y35393D02*
X55857Y35393D01*
X55724Y34763D02*
X55841Y35354D01*
X55841Y35354D02*
X55857Y35393D01*
X54422Y33976D02*
X55839Y35393D01*
X50110Y34842D02*
X50239Y35472D01*
X50239Y35472D02*
X50254Y35511D01*
X50254Y35511D02*
X50295Y35590D01*
X20325Y35078D02*
X20928Y35748D01*
X2303Y35826D02*
X21024Y35826D01*
X45661Y35826D02*
X50453Y35826D01*
X62020Y35826D02*
X83486Y35826D01*
X83350Y35196D02*
X83471Y35787D01*
X20928Y35748D02*
X21024Y35826D01*
X83471Y35787D02*
X83504Y35866D01*
X83504Y35866D02*
X83525Y35905D01*
X59933Y33740D02*
X62134Y35944D01*
X62134Y35944D02*
X62168Y35984D01*
X62168Y35984D02*
X62274Y36141D01*
X50295Y35590D02*
X50665Y36141D01*
X45878Y35157D02*
X45548Y36181D01*
X45548Y36181D02*
X45537Y36220D01*
X50665Y36141D02*
X50736Y36220D01*
X45537Y36220D02*
X45522Y36259D01*
X45522Y36259D02*
X45501Y36299D01*
X2303Y36377D02*
X21783Y36377D01*
X45448Y36377D02*
X50894Y36377D01*
X62432Y36377D02*
X83841Y36377D01*
X45501Y36299D02*
X45448Y36377D01*
X83525Y35905D02*
X83894Y36456D01*
X21024Y35826D02*
X21889Y36456D01*
X21889Y36456D02*
X21937Y36496D01*
X21937Y36496D02*
X22004Y36535D01*
X83894Y36456D02*
X83964Y36535D01*
X62274Y36141D02*
X62537Y36535D01*
X22004Y36535D02*
X22107Y36574D01*
X62537Y36535D02*
X62576Y36614D01*
X62576Y36614D02*
X62591Y36653D01*
X62591Y36653D02*
X62610Y36732D01*
X2303Y36929D02*
X22903Y36929D01*
X45129Y36929D02*
X51445Y36929D01*
X62649Y36929D02*
X84357Y36929D01*
X45448Y36377D02*
X45107Y36968D01*
X45107Y36968D02*
X45109Y37007D01*
X22107Y36574D02*
X23079Y37007D01*
X23079Y37007D02*
X23260Y37047D01*
X45109Y37007D02*
X45195Y37086D01*
X35016Y37204D02*
X35029Y37204D01*
X45195Y37086D02*
X45292Y37165D01*
X45292Y37165D02*
X45327Y37204D01*
X45327Y37204D02*
X45355Y37244D01*
X35029Y37204D02*
X35050Y37244D01*
X24765Y37322D02*
X24995Y37322D01*
X45355Y37244D02*
X45375Y37283D01*
X35050Y37244D02*
X35066Y37283D01*
X23260Y37047D02*
X24371Y37283D01*
X45375Y37283D02*
X45391Y37322D01*
X35066Y37283D02*
X35087Y37322D01*
X24371Y37283D02*
X24765Y37322D01*
X35087Y37322D02*
X35114Y37362D01*
X62610Y36732D02*
X62734Y37362D01*
X35114Y37362D02*
X35150Y37401D01*
X2303Y37480D02*
X25546Y37480D01*
X35016Y37480D02*
X35236Y37480D01*
X45477Y37480D02*
X51996Y37480D01*
X62736Y37480D02*
X84909Y37480D01*
X35150Y37401D02*
X35197Y37440D01*
X62734Y37362D02*
X62736Y37440D01*
X35197Y37440D02*
X35236Y37480D01*
X25389Y37322D02*
X25743Y37677D01*
X25743Y37677D02*
X25774Y37716D01*
X83964Y36535D02*
X85263Y37834D01*
X85263Y37834D02*
X85295Y37874D01*
X2303Y38031D02*
X25882Y38031D01*
X35016Y38031D02*
X35733Y38031D01*
X45769Y38031D02*
X52547Y38031D01*
X62736Y38031D02*
X85295Y38031D01*
X45391Y37322D02*
X45753Y37992D01*
X45753Y37992D02*
X45783Y38070D01*
X45783Y38070D02*
X45881Y38110D01*
X35236Y37480D02*
X35874Y38188D01*
X35874Y38188D02*
X35902Y38228D01*
X35902Y38228D02*
X35937Y38267D01*
X25774Y37716D02*
X25965Y38267D01*
X35937Y38267D02*
X35984Y38307D01*
X25965Y38267D02*
X25986Y38307D01*
X35984Y38307D02*
X36051Y38346D01*
X25986Y38307D02*
X26039Y38385D01*
X45881Y38110D02*
X46599Y38425D01*
X46599Y38425D02*
X46667Y38464D01*
X46667Y38464D02*
X46714Y38503D01*
X2303Y38582D02*
X26192Y38582D01*
X35016Y38582D02*
X36376Y38582D01*
X46800Y38582D02*
X53098Y38582D01*
X62736Y38582D02*
X85295Y38582D01*
X35016Y37204D02*
X35017Y38779D01*
X26039Y38385D02*
X26468Y38937D01*
X36051Y38346D02*
X36918Y38976D01*
X36918Y38976D02*
X36986Y39015D01*
X26468Y38937D02*
X26519Y39015D01*
X36986Y39015D02*
X37063Y39055D01*
X26519Y39015D02*
X26555Y39055D01*
X46714Y38503D02*
X47315Y39055D01*
X2303Y39133D02*
X26670Y39133D01*
X35372Y39133D02*
X37239Y39133D01*
X47378Y39133D02*
X53650Y39133D01*
X62736Y39133D02*
X85295Y39133D01*
X47315Y39055D02*
X47350Y39094D01*
X26555Y39055D02*
X26602Y39094D01*
X47350Y39094D02*
X47378Y39133D01*
X26602Y39094D02*
X26802Y39212D01*
X29984Y39409D02*
X30016Y39409D01*
X37063Y39055D02*
X37947Y39448D01*
X37947Y39448D02*
X38080Y39527D01*
X26802Y39212D02*
X27284Y39527D01*
X38080Y39527D02*
X38260Y39566D01*
X27284Y39527D02*
X27352Y39566D01*
X47378Y39133D02*
X47611Y39566D01*
X38260Y39566D02*
X38537Y39606D01*
X2303Y39685D02*
X27815Y39685D01*
X29356Y39685D02*
X30016Y39685D01*
X35923Y39685D02*
X38908Y39685D01*
X47675Y39685D02*
X54201Y39685D01*
X62736Y39685D02*
X85295Y39685D01*
X27352Y39566D02*
X27660Y39645D01*
X29984Y39409D02*
X29356Y39685D01*
X29356Y39685D02*
X29175Y39724D01*
X38537Y39606D02*
X39093Y39724D01*
X39093Y39724D02*
X39231Y39763D01*
X29175Y39724D02*
X28858Y39763D01*
X27660Y39645D02*
X28126Y39763D01*
X39805Y39842D02*
X39922Y39842D01*
X39231Y39763D02*
X39411Y39803D01*
X28858Y39763D02*
X28492Y39803D01*
X28126Y39763D02*
X28306Y39803D01*
X47611Y39566D02*
X47739Y39803D01*
X85295Y37874D02*
X85295Y39803D01*
X50736Y36220D02*
X54319Y39803D01*
X85077Y39803D02*
X84683Y39842D01*
X54319Y39803D02*
X54324Y39842D01*
X47739Y39803D02*
X47766Y39842D01*
X39411Y39803D02*
X39805Y39842D01*
X28382Y39803D02*
X28344Y39842D01*
X28306Y39803D02*
X28344Y39842D01*
X30016Y39409D02*
X30019Y39842D01*
X84683Y39842D02*
X84503Y39881D01*
X47766Y39842D02*
X47787Y39881D01*
X47787Y39881D02*
X47803Y39921D01*
X30019Y39842D02*
X30028Y39921D01*
X47803Y39921D02*
X47813Y39960D01*
X30028Y39921D02*
X30024Y40000D01*
X30024Y40000D02*
X30026Y40039D01*
X30026Y40039D02*
X30033Y40078D01*
X39805Y40157D02*
X40030Y40157D01*
X30033Y40078D02*
X30043Y40118D01*
X84503Y39881D02*
X83854Y40118D01*
X83854Y40118D02*
X83774Y40157D01*
X30043Y40118D02*
X30059Y40157D01*
X40316Y39842D02*
X40424Y40157D01*
X2303Y40236D02*
X30080Y40236D01*
X36474Y40236D02*
X39231Y40236D01*
X47857Y40236D02*
X54324Y40236D01*
X62736Y40236D02*
X83659Y40236D01*
X83774Y40157D02*
X83706Y40196D01*
X39805Y40157D02*
X39411Y40196D01*
X39411Y40196D02*
X39231Y40236D01*
X39231Y40236D02*
X39093Y40275D01*
X30059Y40157D02*
X30109Y40354D01*
X39093Y40275D02*
X38537Y40393D01*
X38537Y40393D02*
X38260Y40433D01*
X38260Y40433D02*
X38080Y40472D01*
X38080Y40472D02*
X37947Y40551D01*
X30109Y40354D02*
X30161Y40629D01*
X83706Y40196D02*
X83188Y40629D01*
X83188Y40629D02*
X83120Y40669D01*
X30161Y40629D02*
X30176Y40669D01*
X83120Y40669D02*
X83073Y40708D01*
X47813Y39960D02*
X47936Y40708D01*
X2303Y40787D02*
X30228Y40787D01*
X37025Y40787D02*
X37416Y40787D01*
X47949Y40787D02*
X54324Y40787D01*
X62736Y40787D02*
X83010Y40787D01*
X83073Y40708D02*
X83038Y40748D01*
X30176Y40669D02*
X30217Y40748D01*
X83038Y40748D02*
X83010Y40787D01*
X30217Y40748D02*
X30228Y40787D01*
X83010Y40787D02*
X82989Y40826D01*
X30228Y40787D02*
X30243Y40826D01*
X47936Y40708D02*
X47954Y40826D01*
X37143Y40905D02*
X37151Y40905D01*
X82989Y40826D02*
X82974Y40866D01*
X47954Y40826D02*
X47956Y40866D01*
X47956Y40866D02*
X47954Y40905D01*
X30243Y40826D02*
X30286Y40905D01*
X37947Y40551D02*
X37151Y40905D01*
X35017Y38779D02*
X37143Y40905D01*
X82974Y40866D02*
X82930Y40944D01*
X30286Y40905D02*
X30446Y41141D01*
X97499Y41259D02*
X97510Y41259D01*
X47954Y40905D02*
X47900Y41220D01*
X2303Y41338D02*
X30560Y41338D01*
X47880Y41338D02*
X54324Y41338D01*
X62736Y41338D02*
X82703Y41338D01*
X97421Y41338D02*
X97510Y41338D01*
X30446Y41141D02*
X30560Y41338D01*
X30560Y41338D02*
X30587Y41377D01*
X30587Y41377D02*
X30623Y41417D01*
X30623Y41417D02*
X30670Y41456D01*
X30670Y41456D02*
X30699Y41496D01*
X91870Y41574D02*
X91870Y41574D01*
X82930Y40944D02*
X82592Y41535D01*
X82592Y41535D02*
X82577Y41574D01*
X30699Y41496D02*
X30769Y41574D01*
X82577Y41574D02*
X82559Y41653D01*
X47900Y41220D02*
X47815Y41732D01*
X47815Y41732D02*
X47804Y41771D01*
X91870Y41574D02*
X92106Y41811D01*
X97499Y41259D02*
X96948Y41811D01*
X2303Y41889D02*
X31084Y41889D01*
X47749Y41889D02*
X54324Y41889D01*
X62736Y41889D02*
X82518Y41889D01*
X91870Y41889D02*
X92221Y41889D01*
X96833Y41889D02*
X97510Y41889D01*
X96948Y41811D02*
X96901Y41850D01*
X92106Y41811D02*
X92153Y41850D01*
X47804Y41771D02*
X47770Y41850D01*
X96901Y41850D02*
X96833Y41889D01*
X92153Y41850D02*
X92221Y41889D01*
X92795Y41968D02*
X96259Y41968D01*
X96833Y41889D02*
X96653Y41929D01*
X92221Y41889D02*
X92401Y41929D01*
X96653Y41929D02*
X96259Y41968D01*
X92401Y41929D02*
X92795Y41968D01*
X47770Y41850D02*
X47557Y42244D01*
X2303Y42440D02*
X31635Y42440D01*
X47451Y42440D02*
X54324Y42440D01*
X62736Y42440D02*
X82423Y42440D01*
X91870Y42440D02*
X97510Y42440D01*
X82559Y41653D02*
X82423Y42440D01*
X82423Y42440D02*
X82421Y42480D01*
X82421Y42480D02*
X82423Y42519D01*
X92795Y42598D02*
X96259Y42598D01*
X47557Y42244D02*
X47387Y42559D01*
X47387Y42559D02*
X47360Y42598D01*
X96259Y42598D02*
X96653Y42637D01*
X92795Y42598D02*
X92401Y42637D01*
X96653Y42637D02*
X96833Y42677D01*
X92401Y42637D02*
X92221Y42677D01*
X47360Y42598D02*
X47291Y42677D01*
X82423Y42519D02*
X82451Y42677D01*
X96833Y42677D02*
X96901Y42716D01*
X92221Y42677D02*
X92153Y42716D01*
X96901Y42716D02*
X96948Y42755D01*
X92153Y42716D02*
X92106Y42755D01*
X2303Y42992D02*
X32186Y42992D01*
X46949Y42992D02*
X54326Y42992D01*
X62736Y42992D02*
X82507Y42992D01*
X91870Y42992D02*
X91870Y42992D01*
X97184Y42992D02*
X97510Y42992D01*
X92106Y42755D02*
X91870Y42992D01*
X91870Y41574D02*
X91870Y42992D01*
X54324Y39842D02*
X54326Y42992D01*
X54326Y42992D02*
X54332Y43031D01*
X54332Y43031D02*
X54343Y43070D01*
X54343Y43070D02*
X54358Y43110D01*
X54358Y43110D02*
X54379Y43149D01*
X54379Y43149D02*
X54406Y43188D01*
X47291Y42677D02*
X46735Y43188D01*
X54406Y43188D02*
X54442Y43228D01*
X46735Y43188D02*
X46687Y43228D01*
X97499Y43307D02*
X97510Y43307D01*
X54442Y43228D02*
X54489Y43267D01*
X54489Y43267D02*
X54557Y43307D01*
X46687Y43228D02*
X46553Y43307D01*
X96948Y42755D02*
X97499Y43307D01*
X97510Y41259D02*
X97510Y43307D01*
X54557Y43307D02*
X54737Y43346D01*
X54737Y43346D02*
X55131Y43385D01*
X82451Y42677D02*
X82577Y43385D01*
X82577Y43385D02*
X82593Y43425D01*
X82593Y43425D02*
X82614Y43464D01*
X2303Y43543D02*
X32738Y43543D01*
X46014Y43543D02*
X55333Y43543D01*
X62736Y43543D02*
X82668Y43543D01*
X82614Y43464D02*
X82668Y43543D01*
X46553Y43307D02*
X45924Y43582D01*
X45924Y43582D02*
X45851Y43622D01*
X45851Y43622D02*
X45671Y43661D01*
X45671Y43661D02*
X45501Y43700D01*
X45501Y43700D02*
X45522Y43740D01*
X45522Y43740D02*
X45537Y43779D01*
X45537Y43779D02*
X45571Y43897D01*
X2303Y44094D02*
X33289Y44094D01*
X45635Y44094D02*
X55333Y44094D01*
X62736Y44094D02*
X82986Y44094D01*
X82668Y43543D02*
X83009Y44133D01*
X83009Y44133D02*
X83036Y44173D01*
X83036Y44173D02*
X83072Y44212D01*
X83072Y44212D02*
X83258Y44370D01*
X87653Y44488D02*
X87657Y44488D01*
X87653Y44488D02*
X87455Y44527D01*
X87455Y44527D02*
X87061Y44566D01*
X2303Y44645D02*
X33840Y44645D01*
X45814Y44645D02*
X55333Y44645D01*
X62736Y44645D02*
X83587Y44645D01*
X86648Y44645D02*
X87657Y44645D01*
X86742Y44566D02*
X86507Y44763D01*
X83258Y44370D02*
X83728Y44763D01*
X86507Y44763D02*
X86439Y44803D01*
X83728Y44763D02*
X83796Y44803D01*
X30769Y41574D02*
X34076Y44881D01*
X34076Y44881D02*
X34097Y44921D01*
X45571Y43897D02*
X45902Y44921D01*
X45902Y44921D02*
X45912Y44960D01*
X34097Y44921D02*
X34087Y44960D01*
X45912Y44960D02*
X45923Y45039D01*
X34087Y44960D02*
X34076Y45039D01*
X86439Y44803D02*
X85790Y45039D01*
X83796Y44803D02*
X84445Y45039D01*
X85790Y45039D02*
X85694Y45078D01*
X84445Y45039D02*
X84541Y45078D01*
X85115Y45157D02*
X85120Y45157D01*
X85694Y45078D02*
X85514Y45118D01*
X84541Y45078D02*
X84721Y45118D01*
X2303Y45196D02*
X34060Y45196D01*
X45939Y45196D02*
X55333Y45196D01*
X62736Y45196D02*
X87657Y45196D01*
X85514Y45118D02*
X85120Y45157D01*
X84721Y45118D02*
X85115Y45157D01*
X2303Y45748D02*
X34002Y45748D01*
X45997Y45748D02*
X55333Y45748D01*
X62736Y45748D02*
X87657Y45748D01*
X45923Y45039D02*
X46043Y46181D01*
X34076Y45039D02*
X33956Y46181D01*
X2303Y46299D02*
X33956Y46299D01*
X46043Y46299D02*
X55333Y46299D01*
X62736Y46299D02*
X87657Y46299D01*
X49891Y46574D02*
X54508Y46574D01*
X54902Y46614D02*
X55097Y46614D01*
X55333Y43385D02*
X55333Y46574D01*
X55333Y46574D02*
X55097Y46614D01*
X54508Y46574D02*
X54902Y46614D01*
X49891Y46574D02*
X49497Y46614D01*
X49497Y46614D02*
X49317Y46653D01*
X49317Y46653D02*
X49249Y46692D01*
X49249Y46692D02*
X49202Y46732D01*
X49202Y46732D02*
X49166Y46771D01*
X2303Y46850D02*
X33956Y46850D01*
X46043Y46850D02*
X49118Y46850D01*
X62736Y46850D02*
X87657Y46850D01*
X49166Y46771D02*
X49139Y46811D01*
X49139Y46811D02*
X49118Y46850D01*
X87657Y44488D02*
X87657Y46850D01*
X87657Y46850D02*
X87645Y46889D01*
X49118Y46850D02*
X49103Y46889D01*
X49103Y46889D02*
X49092Y46929D01*
X49092Y46929D02*
X49086Y46968D01*
X49086Y46968D02*
X49084Y47047D01*
X87645Y46889D02*
X87409Y47125D01*
X87409Y47125D02*
X87270Y47165D01*
X87270Y47165D02*
X87090Y47204D01*
X2303Y47401D02*
X33956Y47401D01*
X46043Y47401D02*
X49084Y47401D01*
X62736Y47401D02*
X86331Y47401D01*
X87090Y47204D02*
X86468Y47362D01*
X86468Y47362D02*
X86331Y47401D01*
X86331Y47401D02*
X86263Y47440D01*
X86263Y47440D02*
X85659Y47834D01*
X85659Y47834D02*
X85591Y47874D01*
X2303Y47952D02*
X33956Y47952D01*
X46043Y47952D02*
X49084Y47952D01*
X62736Y47952D02*
X85509Y47952D01*
X85591Y47874D02*
X85544Y47913D01*
X85544Y47913D02*
X85509Y47952D01*
X85509Y47952D02*
X85452Y48031D01*
X46982Y48228D02*
X47144Y48267D01*
X46982Y48228D02*
X46819Y48267D01*
X47319Y48267D02*
X47713Y48307D01*
X46819Y48267D02*
X46639Y48307D01*
X47713Y48307D02*
X47893Y48346D01*
X46041Y48425D02*
X46173Y48425D01*
X47893Y48346D02*
X47965Y48385D01*
X46639Y48307D02*
X46173Y48425D01*
X46043Y46181D02*
X46041Y48425D01*
X33956Y46181D02*
X33958Y48425D01*
X2303Y48503D02*
X33969Y48503D01*
X48234Y48503D02*
X49084Y48503D01*
X62736Y48503D02*
X85084Y48503D01*
X33958Y48425D02*
X33969Y48503D01*
X48414Y48582D02*
X49084Y48582D01*
X47965Y48385D02*
X48414Y48582D01*
X49084Y47047D02*
X49084Y48582D01*
X85452Y48031D02*
X84996Y48622D01*
X84996Y48622D02*
X84952Y48700D01*
X84952Y48700D02*
X84910Y48818D01*
X2303Y49055D02*
X34027Y49055D01*
X62736Y49055D02*
X84829Y49055D01*
X84910Y48818D02*
X84668Y49527D01*
X2303Y49606D02*
X34087Y49606D01*
X62736Y49606D02*
X84659Y49606D01*
X84668Y49527D02*
X84661Y49566D01*
X33969Y48503D02*
X34087Y49606D01*
X84661Y49566D02*
X84659Y49645D01*
X34087Y49606D02*
X34121Y49724D01*
X90401Y50118D02*
X90413Y50118D01*
X2303Y50157D02*
X34262Y50157D01*
X62736Y50157D02*
X84659Y50157D01*
X90395Y50157D02*
X90452Y50157D01*
X90388Y50196D02*
X90492Y50196D01*
X90413Y50118D02*
X90492Y50196D01*
X90401Y50118D02*
X90388Y50196D01*
X84659Y49645D02*
X84661Y50472D01*
X84661Y50472D02*
X84668Y50511D01*
X84668Y50511D02*
X84678Y50551D01*
X2303Y50708D02*
X34441Y50708D01*
X62736Y50708D02*
X84734Y50708D01*
X84678Y50551D02*
X84721Y50669D01*
X34121Y49724D02*
X34451Y50748D01*
X34451Y50748D02*
X34462Y50787D01*
X34462Y50787D02*
X34477Y50826D01*
X34477Y50826D02*
X34498Y50866D01*
X34498Y50866D02*
X34551Y50944D01*
X2303Y51259D02*
X34733Y51259D01*
X62736Y51259D02*
X84923Y51259D01*
X84721Y50669D02*
X84952Y51338D01*
X84952Y51338D02*
X84996Y51417D01*
X84996Y51417D02*
X85054Y51496D01*
X2303Y51811D02*
X35050Y51811D01*
X62736Y51811D02*
X85299Y51811D01*
X100187Y51811D02*
X100196Y51811D01*
X34551Y50944D02*
X35050Y51811D01*
X35050Y51811D02*
X35066Y51850D01*
X35066Y51850D02*
X35087Y51889D01*
X35087Y51889D02*
X35114Y51929D01*
X35114Y51929D02*
X35150Y51968D01*
X35150Y51968D02*
X35197Y52007D01*
X35197Y52007D02*
X35236Y52047D01*
X85054Y51496D02*
X85481Y52047D01*
X85481Y52047D02*
X85509Y52086D01*
X85509Y52086D02*
X85544Y52125D01*
X85544Y52125D02*
X85591Y52165D01*
X85591Y52165D02*
X85659Y52204D01*
X2303Y52362D02*
X35520Y52362D01*
X62736Y52362D02*
X85902Y52362D01*
X99636Y52362D02*
X100196Y52362D01*
X85659Y52204D02*
X85841Y52322D01*
X85841Y52322D02*
X86143Y52519D01*
X35236Y52047D02*
X35874Y52755D01*
X35874Y52755D02*
X35902Y52795D01*
X35902Y52795D02*
X35937Y52834D01*
X86143Y52519D02*
X85659Y52834D01*
X2303Y52913D02*
X36051Y52913D01*
X62736Y52913D02*
X85544Y52913D01*
X99085Y52913D02*
X100196Y52913D01*
X85659Y52834D02*
X85591Y52874D01*
X35937Y52834D02*
X35984Y52874D01*
X85591Y52874D02*
X85544Y52913D01*
X35984Y52874D02*
X36051Y52913D01*
X85544Y52913D02*
X85509Y52952D01*
X85509Y52952D02*
X85452Y53031D01*
X54902Y53385D02*
X55097Y53385D01*
X52394Y53425D02*
X54508Y53425D01*
X55491Y53425D02*
X58129Y53425D01*
X2303Y53464D02*
X36810Y53464D01*
X51820Y53464D02*
X58523Y53464D01*
X62736Y53464D02*
X85115Y53464D01*
X98534Y53464D02*
X100196Y53464D01*
X55097Y53385D02*
X55491Y53425D01*
X54902Y53385D02*
X54508Y53425D01*
X43135Y53503D02*
X43364Y53503D01*
X52000Y53425D02*
X51820Y53464D01*
X51820Y53464D02*
X51552Y53503D01*
X32408Y53464D02*
X32802Y53503D01*
X25991Y53464D02*
X25597Y53503D01*
X51552Y53503D02*
X51372Y53543D01*
X43364Y53503D02*
X43544Y53543D01*
X43135Y53503D02*
X43081Y53543D01*
X32802Y53503D02*
X32982Y53543D01*
X25597Y53503D02*
X25417Y53543D01*
X36051Y52913D02*
X36918Y53543D01*
X44203Y53622D02*
X45348Y53622D01*
X48856Y53622D02*
X50712Y53622D01*
X51372Y53543D02*
X51106Y53582D01*
X43544Y53543D02*
X43809Y53582D01*
X43081Y53543D02*
X43013Y53582D01*
X36918Y53543D02*
X36952Y53582D01*
X32982Y53543D02*
X33050Y53582D01*
X25417Y53543D02*
X25349Y53582D01*
X51106Y53582D02*
X50712Y53622D01*
X43809Y53582D02*
X44203Y53622D01*
X43013Y53582D02*
X42936Y53622D01*
X33050Y53582D02*
X33097Y53622D01*
X25349Y53582D02*
X25302Y53622D01*
X85452Y53031D02*
X84996Y53622D01*
X33097Y53622D02*
X33133Y53661D01*
X25302Y53622D02*
X25266Y53661D01*
X33133Y53661D02*
X33160Y53700D01*
X25266Y53661D02*
X25239Y53700D01*
X84996Y53622D02*
X84952Y53700D01*
X45741Y53622D02*
X45860Y53700D01*
X45860Y53700D02*
X45928Y53740D01*
X33160Y53700D02*
X33181Y53740D01*
X25239Y53700D02*
X25218Y53740D01*
X100187Y51811D02*
X98261Y53740D01*
X98261Y53740D02*
X98234Y53779D01*
X45928Y53740D02*
X46089Y53779D01*
X33181Y53740D02*
X33196Y53779D01*
X25218Y53740D02*
X25203Y53779D01*
X42936Y53622D02*
X42583Y53779D01*
X98234Y53779D02*
X98199Y53818D01*
X42583Y53779D02*
X42500Y53818D01*
X33196Y53779D02*
X33207Y53818D01*
X25203Y53779D02*
X25192Y53818D01*
X84952Y53700D02*
X84910Y53818D01*
X98199Y53818D02*
X98151Y53858D01*
X33207Y53818D02*
X33213Y53858D01*
X25192Y53818D02*
X25186Y53858D01*
X48462Y53622D02*
X47924Y53858D01*
X98151Y53858D02*
X98090Y53897D01*
X47924Y53858D02*
X47744Y53897D01*
X33213Y53858D02*
X33215Y53937D01*
X25186Y53858D02*
X25184Y53937D01*
X46089Y53779D02*
X46711Y53937D01*
X2303Y54015D02*
X25184Y54015D01*
X33215Y54015D02*
X36519Y54015D01*
X42500Y54015D02*
X58523Y54015D01*
X62736Y54015D02*
X84842Y54015D01*
X98208Y54015D02*
X100196Y54015D01*
X46711Y53937D02*
X46891Y53976D01*
X47744Y53897D02*
X47055Y53976D01*
X46925Y53976D02*
X46908Y54015D01*
X46891Y53976D02*
X46908Y54015D01*
X42500Y53818D02*
X42497Y54094D01*
X42497Y54094D02*
X42487Y54173D01*
X42487Y54173D02*
X42492Y54251D01*
X42492Y54251D02*
X42489Y54291D01*
X42489Y54291D02*
X42483Y54330D01*
X2303Y54566D02*
X25184Y54566D01*
X33215Y54566D02*
X35968Y54566D01*
X42416Y54566D02*
X58523Y54566D01*
X62736Y54566D02*
X84661Y54566D01*
X98759Y54566D02*
X100196Y54566D01*
X84910Y53818D02*
X84668Y54527D01*
X84668Y54527D02*
X84661Y54566D01*
X84661Y54566D02*
X84659Y54645D01*
X42483Y54330D02*
X42401Y54645D01*
X62736Y37440D02*
X62736Y54763D01*
X62736Y54763D02*
X62776Y54803D01*
X42401Y54645D02*
X42356Y54881D01*
X42356Y54881D02*
X42340Y54921D01*
X62776Y54803D02*
X63046Y54921D01*
X98090Y53897D02*
X99110Y54921D01*
X33215Y55000D02*
X35535Y55000D01*
X99110Y54921D02*
X99137Y54960D01*
X63046Y54921D02*
X63126Y54960D01*
X99137Y54960D02*
X99158Y55000D01*
X63126Y54960D02*
X63194Y55000D01*
X42340Y54921D02*
X42300Y55000D01*
X33215Y53937D02*
X33215Y55000D01*
X36952Y53582D02*
X35535Y55000D01*
X99158Y55000D02*
X99173Y55039D01*
X63194Y55000D02*
X63241Y55039D01*
X42300Y55000D02*
X42290Y55039D01*
X2303Y55118D02*
X25184Y55118D01*
X42254Y55118D02*
X58523Y55118D01*
X63326Y55118D02*
X84659Y55118D01*
X99190Y55118D02*
X100196Y55118D01*
X99173Y55039D02*
X99184Y55078D01*
X42290Y55039D02*
X42274Y55078D01*
X99184Y55078D02*
X99190Y55118D01*
X42274Y55078D02*
X42233Y55157D01*
X99190Y55118D02*
X99192Y55196D01*
X51141Y55314D02*
X58129Y55314D01*
X58523Y53425D02*
X58523Y55314D01*
X51141Y55314D02*
X50748Y55354D01*
X50748Y55354D02*
X50567Y55393D01*
X42233Y55157D02*
X42072Y55393D01*
X50567Y55393D02*
X50500Y55433D01*
X50500Y55433D02*
X50452Y55472D01*
X84659Y54645D02*
X84661Y55472D01*
X84661Y55472D02*
X84668Y55511D01*
X50452Y55472D02*
X50417Y55511D01*
X84668Y55511D02*
X84678Y55551D01*
X50417Y55511D02*
X50390Y55551D01*
X50390Y55551D02*
X50369Y55590D01*
X42072Y55393D02*
X41958Y55590D01*
X63241Y55039D02*
X63836Y55590D01*
X2303Y55669D02*
X25184Y55669D01*
X41896Y55669D02*
X50342Y55669D01*
X63899Y55669D02*
X84721Y55669D01*
X99192Y55669D02*
X100196Y55669D01*
X63836Y55590D02*
X63872Y55629D01*
X50369Y55590D02*
X50353Y55629D01*
X41958Y55590D02*
X41931Y55629D01*
X63872Y55629D02*
X63899Y55669D01*
X50353Y55629D02*
X50342Y55669D01*
X41931Y55629D02*
X41896Y55669D01*
X84678Y55551D02*
X84721Y55669D01*
X50342Y55669D02*
X50336Y55708D01*
X41896Y55669D02*
X41854Y55708D01*
X41854Y55708D02*
X41833Y55748D01*
X41833Y55748D02*
X41806Y55787D01*
X50336Y55708D02*
X50334Y55787D01*
X41806Y55787D02*
X41770Y55826D01*
X41770Y55826D02*
X41673Y55905D01*
X2303Y56220D02*
X25184Y56220D01*
X41358Y56220D02*
X50334Y56220D01*
X64197Y56220D02*
X84910Y56220D01*
X99192Y56220D02*
X100196Y56220D01*
X84721Y55669D02*
X84952Y56338D01*
X84952Y56338D02*
X84996Y56417D01*
X63899Y55669D02*
X64305Y56417D01*
X64305Y56417D02*
X64320Y56456D01*
X64320Y56456D02*
X64331Y56496D01*
X84996Y56417D02*
X85054Y56496D01*
X89860Y56692D02*
X89862Y56692D01*
X2303Y56771D02*
X25184Y56771D01*
X40806Y56771D02*
X50334Y56771D01*
X64377Y56771D02*
X85268Y56771D01*
X89811Y56771D02*
X89862Y56771D01*
X99192Y56771D02*
X100196Y56771D01*
X89860Y56692D02*
X89839Y56732D01*
X89839Y56732D02*
X89811Y56771D01*
X89811Y56771D02*
X89737Y56850D01*
X85054Y56496D02*
X85481Y57047D01*
X85481Y57047D02*
X85509Y57086D01*
X64331Y56496D02*
X64429Y57086D01*
X85509Y57086D02*
X85544Y57125D01*
X85544Y57125D02*
X85591Y57165D01*
X85591Y57165D02*
X85659Y57204D01*
X2303Y57322D02*
X25184Y57322D01*
X40255Y57322D02*
X50334Y57322D01*
X64468Y57322D02*
X85841Y57322D01*
X89224Y57322D02*
X89862Y57322D01*
X99192Y57322D02*
X100196Y57322D01*
X85659Y57204D02*
X85841Y57322D01*
X64429Y57086D02*
X64472Y57362D01*
X89737Y56850D02*
X89181Y57362D01*
X89181Y57362D02*
X89134Y57401D01*
X64472Y57362D02*
X64474Y57401D01*
X89134Y57401D02*
X89066Y57440D01*
X64474Y57401D02*
X64472Y57440D01*
X89066Y57440D02*
X88988Y57480D01*
X64472Y57440D02*
X64443Y57598D01*
X85841Y57322D02*
X86263Y57598D01*
X86263Y57598D02*
X86331Y57637D01*
X86331Y57637D02*
X86468Y57677D01*
X88988Y57480D02*
X88449Y57716D01*
X88449Y57716D02*
X88376Y57755D01*
X88376Y57755D02*
X88308Y57795D01*
X2303Y57874D02*
X25184Y57874D01*
X39704Y57874D02*
X50334Y57874D01*
X64397Y57874D02*
X87270Y57874D01*
X87450Y57874D02*
X89862Y57874D01*
X99192Y57874D02*
X100196Y57874D01*
X88308Y57795D02*
X88128Y57834D01*
X86468Y57677D02*
X87090Y57834D01*
X88128Y57834D02*
X87734Y57874D01*
X87090Y57834D02*
X87270Y57874D01*
X87450Y57874D02*
X87360Y57913D01*
X87270Y57874D02*
X87360Y57913D01*
X64443Y57598D02*
X64331Y58267D01*
X64331Y58267D02*
X64320Y58307D01*
X64320Y58307D02*
X64305Y58346D01*
X2303Y58425D02*
X25184Y58425D01*
X39153Y58425D02*
X50334Y58425D01*
X64263Y58425D02*
X89862Y58425D01*
X99192Y58425D02*
X100196Y58425D01*
X64305Y58346D02*
X64114Y58700D01*
X2303Y58976D02*
X25184Y58976D01*
X38602Y58976D02*
X50334Y58976D01*
X63964Y58976D02*
X89862Y58976D01*
X99192Y58976D02*
X100196Y58976D01*
X64114Y58700D02*
X63900Y59094D01*
X63900Y59094D02*
X63873Y59133D01*
X63873Y59133D02*
X63800Y59212D01*
X41673Y55905D02*
X38327Y59251D01*
X38327Y59251D02*
X38232Y59330D01*
X38232Y59330D02*
X38196Y59370D01*
X38196Y59370D02*
X38149Y59409D01*
X89862Y56692D02*
X89864Y59448D01*
X99192Y55196D02*
X99190Y59448D01*
X2303Y59527D02*
X25184Y59527D01*
X37948Y59527D02*
X50334Y59527D01*
X63458Y59527D02*
X89881Y59527D01*
X99173Y59527D02*
X100196Y59527D01*
X99190Y59448D02*
X99184Y59488D01*
X89864Y59448D02*
X89870Y59488D01*
X38149Y59409D02*
X38016Y59488D01*
X59665Y59566D02*
X59719Y59566D01*
X99184Y59488D02*
X99173Y59527D01*
X89870Y59488D02*
X89881Y59527D01*
X38016Y59488D02*
X37948Y59527D01*
X99173Y59527D02*
X99158Y59566D01*
X89881Y59527D02*
X89896Y59566D01*
X37948Y59527D02*
X37885Y59566D01*
X99158Y59566D02*
X99137Y59606D01*
X89896Y59566D02*
X89917Y59606D01*
X99137Y59606D02*
X99110Y59645D01*
X89917Y59606D02*
X89944Y59645D01*
X37885Y59566D02*
X37772Y59645D01*
X37772Y59645D02*
X37733Y59685D01*
X37733Y59685D02*
X37686Y59724D01*
X99110Y59645D02*
X99035Y59724D01*
X89944Y59645D02*
X90019Y59724D01*
X63800Y59212D02*
X63244Y59724D01*
X63244Y59724D02*
X63197Y59763D01*
X37686Y59724D02*
X37618Y59763D01*
X63197Y59763D02*
X63129Y59803D01*
X37618Y59763D02*
X37471Y59803D01*
X63129Y59803D02*
X63052Y59842D01*
X37471Y59803D02*
X37295Y59842D01*
X37295Y59842D02*
X37115Y59881D01*
X37115Y59881D02*
X36962Y59921D01*
X36962Y59921D02*
X36782Y59960D01*
X59719Y59566D02*
X60322Y59960D01*
X33609Y60039D02*
X36163Y60039D01*
X60322Y59960D02*
X60390Y60000D01*
X36782Y59960D02*
X36556Y60000D01*
X2303Y60078D02*
X25184Y60078D01*
X33215Y60078D02*
X50334Y60078D01*
X59665Y60078D02*
X60679Y60078D01*
X62514Y60078D02*
X90374Y60078D01*
X98681Y60078D02*
X100196Y60078D01*
X60390Y60000D02*
X60523Y60039D01*
X36556Y60000D02*
X36163Y60039D01*
X63052Y59842D02*
X62514Y60078D01*
X62514Y60078D02*
X62437Y60118D01*
X62437Y60118D02*
X62369Y60157D01*
X62369Y60157D02*
X62189Y60196D01*
X60523Y60039D02*
X61145Y60196D01*
X62189Y60196D02*
X61795Y60236D01*
X61145Y60196D02*
X61325Y60236D01*
X61529Y60236D02*
X61427Y60275D01*
X61325Y60236D02*
X61427Y60275D01*
X2303Y60629D02*
X25184Y60629D01*
X33215Y60629D02*
X50334Y60629D01*
X59665Y60629D02*
X90925Y60629D01*
X98129Y60629D02*
X100196Y60629D01*
X2303Y61181D02*
X25192Y61181D01*
X33207Y61181D02*
X50334Y61181D01*
X59665Y61181D02*
X91476Y61181D01*
X97578Y61181D02*
X100196Y61181D01*
X33215Y60039D02*
X33213Y61141D01*
X25184Y53937D02*
X25186Y61141D01*
X33213Y61141D02*
X33207Y61181D01*
X25186Y61141D02*
X25192Y61181D01*
X33207Y61181D02*
X33196Y61220D01*
X25192Y61181D02*
X25203Y61220D01*
X33196Y61220D02*
X33181Y61259D01*
X25203Y61220D02*
X25218Y61259D01*
X33181Y61259D02*
X33160Y61299D01*
X25218Y61259D02*
X25239Y61299D01*
X33160Y61299D02*
X33133Y61338D01*
X25239Y61299D02*
X25266Y61338D01*
X33133Y61338D02*
X33097Y61377D01*
X25266Y61338D02*
X25302Y61377D01*
X33097Y61377D02*
X33050Y61417D01*
X25302Y61377D02*
X25349Y61417D01*
X33050Y61417D02*
X32982Y61456D01*
X25349Y61417D02*
X25417Y61456D01*
X25991Y61535D02*
X32408Y61535D01*
X32982Y61456D02*
X32802Y61496D01*
X25417Y61456D02*
X25597Y61496D01*
X32802Y61496D02*
X32408Y61535D01*
X25597Y61496D02*
X25991Y61535D01*
X2303Y61732D02*
X50334Y61732D01*
X59665Y61732D02*
X92027Y61732D01*
X97027Y61732D02*
X100196Y61732D01*
X99035Y59724D02*
X96948Y61811D01*
X90019Y59724D02*
X92106Y61811D01*
X96948Y61811D02*
X96901Y61850D01*
X92106Y61811D02*
X92153Y61850D01*
X96901Y61850D02*
X96833Y61889D01*
X92153Y61850D02*
X92221Y61889D01*
X92795Y61968D02*
X96259Y61968D01*
X96833Y61889D02*
X96653Y61929D01*
X92221Y61889D02*
X92401Y61929D01*
X96653Y61929D02*
X96259Y61968D01*
X92401Y61929D02*
X92795Y61968D01*
X2303Y62283D02*
X50334Y62283D01*
X59665Y62283D02*
X100196Y62283D01*
X2303Y62677D02*
X50334Y62677D01*
X59665Y62677D02*
X100196Y62677D01*
X59665Y59566D02*
X59665Y62677D01*
X50334Y55787D02*
X50334Y62677D01*
X100196Y51811D02*
X100196Y62677D01*
X2303Y2322D02*
X2303Y62677D01*
M02*
